<svg xmlns="http://www.w3.org/2000/svg" xmlns:xlink="http://www.w3.org/1999/xlink" viewBox="0 0 583.92 629.63"><defs><style>.cls-1{fill:none;}.cls-2{fill:#191919;}.cls-3{clip-path:url(#clip-path);}.cls-4{fill:#006fcc;}.cls-5{fill:#1257a6;}.cls-6{fill:#999;}.cls-7{fill:#f0f7fc;}.cls-8{fill:#fff;}</style><clipPath id="clip-path" transform="translate(0 -14.84)"><path class="cls-1" d="M311,15a182.81,182.81,0,0,0-77.24,17A121.42,121.42,0,0,0,151.6,0c-67.95,0-123,56-123,125.1,0,63.12,46,115.31,105.74,123.86a183.67,183.67,0,0,0,360.3-50.37C494.6,97.17,412.38,15,311,15Z"/></clipPath></defs><g id="Capa_2" data-name="Capa 2"><g id="Capa_1-2" data-name="Capa 1"><circle class="cls-2" cx="307.47" cy="183.65" r="183.65"/><g class="cls-3"><polygon class="cls-4" points="280.14 250.04 273.38 244.2 307.21 207.2 320.86 145.52 339.93 154.87 327.88 218.94 280.14 250.04"/><path class="cls-5" d="M427.61,275.22H297.08L321,159.73a19.59,19.59,0,0,1,19.19-15.62h50.43A19.6,19.6,0,0,1,410,160.74Z" transform="translate(0 -14.84)"/><polygon class="cls-6" points="408.78 372.53 315.9 372.53 307.91 260.38 416.77 260.38 408.78 372.53"/><ellipse class="cls-4" cx="374.66" cy="104.39" rx="8.74" ry="8.35"/><rect class="cls-4" x="363.8" y="89.02" width="10.86" height="12.6"/><path class="cls-7" d="M371.66,110.65a2.43,2.43,0,1,1-2.43-2.43A2.43,2.43,0,0,1,371.66,110.65Z" transform="translate(0 -14.84)"/><path class="cls-8" d="M367.25,114.6h-9.84l-7.87,29.51v11.81a3.33,3.33,0,0,0,5.3,2.69l19.73-14.5Z" transform="translate(0 -14.84)"/><path class="cls-8" d="M350,95.92h8a11.47,11.47,0,0,1,11.47,11.47v18.45a0,0,0,0,1,0,0H343.63a0,0,0,0,1,0,0V102.34A6.42,6.42,0,0,1,350,95.92Z" transform="translate(713.18 206.92) rotate(180)"/><path class="cls-4" d="M374.66,103.86H349.77a7.73,7.73,0,0,1,0-15.45h9.44a15.45,15.45,0,0,1,15.45,15.45Z" transform="translate(0 -14.84)"/><circle class="cls-8" cx="164.86" cy="134.23" r="85.99" transform="translate(-46.63 141.05) rotate(-45)"/><polygon class="cls-4" points="402.8 292.61 371.72 328.6 247.99 222.6 279.07 186.6 402.8 292.61"/><rect class="cls-4" x="238.62" y="183.28" width="16.72" height="43.74" transform="translate(-69.71 243.15) rotate(-49.19)"/><path class="cls-4" d="M244.38,202.9A106,106,0,1,1,233.44,53.41,106.11,106.11,0,0,1,244.38,202.9ZM104.19,81.84A79.24,79.24,0,1,0,216,73.66,79.32,79.32,0,0,0,104.19,81.84Z" transform="translate(0 -14.84)"/><path class="cls-5" d="M399.81,292.46l-6.76-5.73,36.12-58.1a1.72,1.72,0,0,0-.29-2.36l-52.39-55.93,28-20.55,50.18,66.87a11.43,11.43,0,0,1,0,16.2Z" transform="translate(0 -14.84)"/><path class="cls-8" d="M393.05,286.61l-5.46,3.6a8.25,8.25,0,0,0-3.59,5.52l-1.17,7.09a.47.47,0,0,0,.81.38l5.74-6.5a2.41,2.41,0,0,1,2.4-.73,6.13,6.13,0,0,0,5.57-1.33l2.46-2.18Z" transform="translate(0 -14.84)"/><path class="cls-8" d="M277.48,264.17a2.77,2.77,0,0,1-3.91-.21l-2.76-3.48a2.78,2.78,0,0,1,.22-3.92l.36-.33a3,3,0,0,1,.78-.49l6.3-2.62a.58.58,0,0,1,.8.66l-.89,8.85A2.89,2.89,0,0,1,277.48,264.17Z" transform="translate(0 -14.84)"/></g><path d="M23.14,600.21H11v21.45H0V557.79H18.79a72.63,72.63,0,0,1,10.91.73,20.18,20.18,0,0,1,8.12,2.92,13.68,13.68,0,0,1,5.06,6.16A26,26,0,0,1,44.62,578a25,25,0,0,1-2,10.72,19.46,19.46,0,0,1-5.14,6.85,18.5,18.5,0,0,1-7,3.65A27.75,27.75,0,0,1,23.14,600.21Zm-2.52-33.3H11v23.36H21.53q6.57,0,9.35-2.78t2.79-9.35A18.45,18.45,0,0,0,33,573a7.51,7.51,0,0,0-2.15-3.51,8.83,8.83,0,0,0-4-2A27.43,27.43,0,0,0,20.62,566.91Z" transform="translate(0 -14.84)"/><path d="M89.41,614.08l-1,8.49h-3.1q-7.66,0-10.59-5.66-4.92,5.65-13.86,5.66a14.75,14.75,0,0,1-5.39-1,12.16,12.16,0,0,1-4.24-2.74,12.43,12.43,0,0,1-2.78-4.29,14.68,14.68,0,0,1-1-5.51,11.19,11.19,0,0,1,2.7-7.71,20.27,20.27,0,0,1,6.61-4.93,32.22,32.22,0,0,1,8.44-2.65,58.16,58.16,0,0,1,8.26-.86c-.06-3.11-.76-5.28-2.1-6.53s-3.56-1.87-6.66-1.87q-5.56,0-12.23,3.65l-1.09-8.39a33.25,33.25,0,0,1,16.15-4.29q8.2,0,12.27,4.52t4.06,14.82v11.32c0,1.7,0,3.07.14,4.1a6.38,6.38,0,0,0,.59,2.42,2.18,2.18,0,0,0,1.32,1.14,8.08,8.08,0,0,0,2.33.27Zm-16-3.65V599.94a26.67,26.67,0,0,0-11,2.42q-4.2,2.14-4.2,6.25,0,5.92,6.39,5.93a11.47,11.47,0,0,0,4.65-1.1A12.38,12.38,0,0,0,73.45,610.43Z" transform="translate(0 -14.84)"/><path d="M114.05,644.47a35.55,35.55,0,0,1-9.31-1.1,21.16,21.16,0,0,1-6.66-3,13.4,13.4,0,0,1-4-4.29A10.25,10.25,0,0,1,92.7,631q0-6.66,7.66-10.13c-2.86-1.58-4.29-3.67-4.29-6.29s1.58-4.87,4.75-6.39q-7.21-5-7.21-14.69a19.87,19.87,0,0,1,1.28-7.16,16,16,0,0,1,3.65-5.7,17,17,0,0,1,5.79-3.74,20.65,20.65,0,0,1,7.71-1.37,19.39,19.39,0,0,1,10.68,2.92,22.3,22.3,0,0,1,10.12-2.19h2.28l-.82,6.66h-3.46a25.06,25.06,0,0,0-3.47.27,17.14,17.14,0,0,1,3.19,10.22,19.22,19.22,0,0,1-1.23,6.89,16.64,16.64,0,0,1-3.6,5.7,16.85,16.85,0,0,1-5.8,3.88,20.06,20.06,0,0,1-7.71,1.41,24.69,24.69,0,0,1-5.29-.54,2.13,2.13,0,0,0-1.37,1.82,1.77,1.77,0,0,0,.6,1.37,5.26,5.26,0,0,0,2,1,25.44,25.44,0,0,0,3.69.87c1.55.27,3.52.56,5.89.87,2,.3,4.07.7,6.2,1.18a22.48,22.48,0,0,1,5.84,2.19,13.4,13.4,0,0,1,4.38,3.84A11.14,11.14,0,0,1,136,630a12.25,12.25,0,0,1-5.75,10.54Q124.54,644.46,114.05,644.47Zm.45-20.17-6.29-.91a11.92,11.92,0,0,0-4.75,2.65,5.48,5.48,0,0,0-1.82,4.1,5.59,5.59,0,0,0,3.19,5Q108,637,113.77,637a20.06,20.06,0,0,0,9.26-1.82q3.52-1.83,3.52-4.74c0-1.77-1-3.09-3.1-4A36.69,36.69,0,0,0,114.5,624.3Zm-2.46-41a8.34,8.34,0,0,0-6.71,2.73,11.05,11.05,0,0,0-2.32,7.39,10.88,10.88,0,0,0,2.37,7.39,8.43,8.43,0,0,0,6.75,2.74,8.27,8.27,0,0,0,6.71-2.78,11.25,11.25,0,0,0,2.32-7.44,10.71,10.71,0,0,0-2.37-7.34A8.5,8.5,0,0,0,112,583.34Z" transform="translate(0 -14.84)"/><path d="M179.37,600.67H149q.91,6.8,5,10a15.22,15.22,0,0,0,9.63,3.17,30.76,30.76,0,0,0,13.69-3.28l.73,8.57a34.2,34.2,0,0,1-15.15,3.47,28.38,28.38,0,0,1-10.4-1.78,21.82,21.82,0,0,1-7.71-5,21.37,21.37,0,0,1-4.79-7.48,26,26,0,0,1-1.64-9.4,27.31,27.31,0,0,1,1.5-9.17,22.18,22.18,0,0,1,4.38-7.44,20.7,20.7,0,0,1,6.89-5,21.94,21.94,0,0,1,9.12-1.82,21.55,21.55,0,0,1,7.9,1.41,19,19,0,0,1,6.25,4,18.44,18.44,0,0,1,4.15,6.16,20.55,20.55,0,0,1,1.5,8c0,.73,0,1.57-.13,2.51A26.89,26.89,0,0,1,179.37,600.67Zm-19-16.42q-8.94,0-11,9.4h20a10.31,10.31,0,0,0-2.19-6.66Q165.05,584.24,160.4,584.25Z" transform="translate(0 -14.84)"/><path d="M248.81,621.66H238.5V597.11q0-6.66-2.33-9.76t-7.53-3.1q-6.39,0-9.76,4.47v32.94H208.57V576.31h9.31l.36,3.38a18.12,18.12,0,0,1,11.5-4.2q19.06,0,19.07,21.62Z" transform="translate(0 -14.84)"/><path d="M256.38,599a26.65,26.65,0,0,1,1.59-9.26,21.77,21.77,0,0,1,4.57-7.48,21.38,21.38,0,0,1,7.2-5,23.8,23.8,0,0,1,9.45-1.82,23.4,23.4,0,0,1,9.39,1.82,21.23,21.23,0,0,1,7.17,5,23,23,0,0,1,4.6,7.48A25.45,25.45,0,0,1,302,599a26.25,26.25,0,0,1-1.6,9.21,22.53,22.53,0,0,1-4.56,7.49,20.94,20.94,0,0,1-7.21,5,25.39,25.39,0,0,1-18.93,0,21.25,21.25,0,0,1-7.16-5,21.83,21.83,0,0,1-4.57-7.43A26.57,26.57,0,0,1,256.38,599ZM267,599q0,6.82,3.24,10.83a12.09,12.09,0,0,0,18,0q3.24-4,3.24-10.83c0-4.54-1.08-8.14-3.24-10.77a12.17,12.17,0,0,0-18,0C268,590.84,267,594.44,267,599Z" transform="translate(0 -14.84)"/><path d="M333.38,614.08l-.91,8.49h-7.85a14.37,14.37,0,0,1-5.29-.91,10.79,10.79,0,0,1-3.79-2.47,9.83,9.83,0,0,1-2.23-3.65,13.71,13.71,0,0,1-.73-4.56V584.71h-6.84l.91-8.4h5.93V566l10.31-1.09v11.4h10.58v8.4H322.89v21.53a41.78,41.78,0,0,0,.18,4.42A3.87,3.87,0,0,0,324,613a3.76,3.76,0,0,0,2.29.91,39.23,39.23,0,0,0,4.28.18Z" transform="translate(0 -14.84)"/><path d="M385.21,584.71H374.53v36.95H364.22V584.71h-6.93l1.09-8.4h5.84V565.36a15.26,15.26,0,0,1,.73-4.79,11.61,11.61,0,0,1,2.1-3.88,9.48,9.48,0,0,1,3.37-2.55,10.9,10.9,0,0,1,4.57-.91q2.28,0,4.74.18c1.64.12,3.38.3,5.2.54l-1,8.58a20.84,20.84,0,0,0-5.11-.54,6,6,0,0,0-2.19.32,2.61,2.61,0,0,0-1.33,1.24,6.65,6.65,0,0,0-.63,2.57c-.09,1.1-.14,2.51-.14,4.22v6h10.68Z" transform="translate(0 -14.84)"/><path d="M389,599a26.65,26.65,0,0,1,1.59-9.26,21.9,21.9,0,0,1,4.56-7.48,21.42,21.42,0,0,1,7.21-5,23.79,23.79,0,0,1,9.44-1.82,23.45,23.45,0,0,1,9.4,1.82,21.09,21.09,0,0,1,7.16,5,22.87,22.87,0,0,1,4.61,7.48,25.45,25.45,0,0,1,1.64,9.22,26.25,26.25,0,0,1-1.59,9.21,22.53,22.53,0,0,1-4.56,7.49,20.94,20.94,0,0,1-7.21,5,25.39,25.39,0,0,1-18.93,0,21.39,21.39,0,0,1-7.17-5,22,22,0,0,1-4.56-7.43A26.57,26.57,0,0,1,389,599Zm10.58,0q0,6.82,3.24,10.83a12.09,12.09,0,0,0,18,0q3.24-4,3.24-10.83c0-4.54-1.08-8.14-3.24-10.77a12.17,12.17,0,0,0-18,0C400.61,590.84,399.53,594.44,399.53,599Z" transform="translate(0 -14.84)"/><path d="M481.37,621.66h-9.49l-.46-3.38a15.3,15.3,0,0,1-10.85,4.29q-18.44,0-18.43-21.26v-25h10.31v24.33q0,6.86,2.28,10t7.21,3.15q6,0,9.12-4.21V576.31h10.31Z" transform="translate(0 -14.84)"/><path d="M532.55,621.66H522.24V597.11q0-6.66-2.32-9.76t-7.53-3.1q-6.39,0-9.76,4.47v32.94H492.32V576.31h9.3l.37,3.38a18.11,18.11,0,0,1,11.49-4.2q19.08,0,19.07,21.62Z" transform="translate(0 -14.84)"/><path d="M583.92,621.66h-9.67l-.37-3.56a17.36,17.36,0,0,1-12,4.47,21.49,21.49,0,0,1-9-1.83,20.08,20.08,0,0,1-6.85-5,22.34,22.34,0,0,1-4.33-7.49,27.67,27.67,0,0,1-1.5-9.21,27.11,27.11,0,0,1,1.55-9.26,22.15,22.15,0,0,1,4.38-7.48,20.4,20.4,0,0,1,6.84-5,21.48,21.48,0,0,1,8.94-1.82q7.13,0,11.59,3.92V553.23h10.4Zm-21.26-37.41a10.46,10.46,0,0,0-8.67,4c-2.13,2.69-3.19,6.26-3.19,10.68s1.06,7.93,3.19,10.69a11.11,11.11,0,0,0,17.11.23q3.15-3.92,3.15-10.82t-3.15-10.83A10.18,10.18,0,0,0,562.66,584.25Z" transform="translate(0 -14.84)"/><path class="cls-5" d="M226,497.9H212.59v30h-19v-30H146.06L197,417.3h15.64v65.11H226Zm-32.4-15.49V447l-21.34,35.4Z" transform="translate(0 -14.84)"/><path class="cls-5" d="M290.19,530.14a42.54,42.54,0,0,1-18.65-4,41.82,41.82,0,0,1-14.38-11.38,52.31,52.31,0,0,1-9.25-17.62,75.44,75.44,0,0,1-3.24-22.76,74.2,74.2,0,0,1,3.64-23.79,59.66,59.66,0,0,1,10-18.72,46.58,46.58,0,0,1,15-12.33,40.37,40.37,0,0,1,18.73-4.43,39.38,39.38,0,0,1,18.25,4.27,44.84,44.84,0,0,1,14.38,11.77A55.45,55.45,0,0,1,334.2,449a72.26,72.26,0,0,1,3.4,22.68,78.19,78.19,0,0,1-3.4,23.71,56.79,56.79,0,0,1-9.56,18.49,42.86,42.86,0,0,1-14.93,12A44.12,44.12,0,0,1,290.19,530.14Zm1.58-98.46a22.59,22.59,0,0,0-10.83,2.76,26.65,26.65,0,0,0-9,8.22,42.77,42.77,0,0,0-6.09,13.44,68.66,68.66,0,0,0-2.21,18.25q0,19.59,7.27,29.32a23.2,23.2,0,0,0,19.6,9.71A24.54,24.54,0,0,0,311.21,503Q319,492.68,319,471.66a62.32,62.32,0,0,0-2.13-17,40.24,40.24,0,0,0-5.77-12.56,25.6,25.6,0,0,0-8.61-7.75A22.15,22.15,0,0,0,291.77,431.68Z" transform="translate(0 -14.84)"/><path class="cls-5" d="M429,497.9H415.51v30h-19v-30H349l50.89-80.6h15.64v65.11H429Zm-32.4-15.49V447l-21.34,35.4Z" transform="translate(0 -14.84)"/><rect x="108.47" y="126.35" width="107" height="19" transform="translate(-48.62 139.48) rotate(-45)"/><rect x="152.11" y="82" width="19" height="107" transform="translate(-48.48 139.13) rotate(-45)"/></g></g></svg>