<svg xmlns="http://www.w3.org/2000/svg" xmlns:xlink="http://www.w3.org/1999/xlink" viewBox="0 0 764.02 738.57"><defs><style>.cls-1{fill:none;}.cls-2{fill:#fff;}.cls-3{fill:#1257a6;}.cls-4{fill:#191919;}.cls-5{fill:#d7e9ff;}.cls-6{fill:#f5f7f9;}.cls-7{clip-path:url(#clip-path);}.cls-8{fill:#006fcc;}</style><clipPath id="clip-path"><circle class="cls-1" cx="376.77" cy="318.46" r="179.29"/></clipPath></defs><g id="Capa_2" data-name="Capa 2"><g id="Capa_1-2" data-name="Capa 1"><circle cx="559.55" cy="82.66" r="82.66"/><path class="cls-2" d="M609.3,95.25a4,4,0,1,0-7.39,3,8.47,8.47,0,0,1-.91,7.92,8.38,8.38,0,0,1-7,3.73h-68.8a8.53,8.53,0,0,1-7.25-13l34.4-55.7a8.52,8.52,0,0,1,14.51,0l25.44,41.19A4,4,0,1,0,599,78.13L573.58,36.94a16.49,16.49,0,0,0-28.05,0l-34.4,55.7a16.49,16.49,0,0,0,14,25.16H594a16.25,16.25,0,0,0,13.64-7.21A16.49,16.49,0,0,0,609.3,95.25Z"/><path class="cls-2" d="M559.56,102.1a4,4,0,0,0,0-8h0a4,4,0,0,0,0,8Z"/><path class="cls-2" d="M563.53,84.2V55a4,4,0,1,0-7.95,0V84.2a4,4,0,1,0,7.95,0Z"/><path d="M10.77,737.66H0V673.79H10.77Z"/><path d="M62.77,737.66H52.46V713.11q0-6.66-2.33-9.76t-7.52-3.1q-6.39,0-9.76,4.47v32.94H22.54V692.31h9.3l.37,3.38a18.09,18.09,0,0,1,11.49-4.2q19.06,0,19.07,21.62Z"/><path d="M96.35,730.08l-.92,8.49H87.59a14.33,14.33,0,0,1-5.29-.91,10.7,10.7,0,0,1-3.79-2.47,9.7,9.7,0,0,1-2.23-3.65,13.71,13.71,0,0,1-.74-4.56V700.71H68.7l.91-8.4h5.93V682l10.32-1.09v11.4H96.44v8.4H85.86v21.53a39.23,39.23,0,0,0,.18,4.42A3.81,3.81,0,0,0,87,729a3.75,3.75,0,0,0,2.28.91,39.31,39.31,0,0,0,4.29.18Z"/><path d="M142.15,716.67H111.77q.9,6.8,5,10a15.17,15.17,0,0,0,9.62,3.17,30.73,30.73,0,0,0,13.69-3.28l.73,8.57a34.14,34.14,0,0,1-15.15,3.47,28.38,28.38,0,0,1-10.4-1.78,21.82,21.82,0,0,1-7.71-5,21.51,21.51,0,0,1-4.79-7.48,26.22,26.22,0,0,1-1.64-9.4,27.06,27.06,0,0,1,1.51-9.17,21.86,21.86,0,0,1,4.38-7.44,20.6,20.6,0,0,1,6.89-5,21.87,21.87,0,0,1,9.12-1.82,21.45,21.45,0,0,1,7.89,1.41,18.9,18.9,0,0,1,6.25,4,18.29,18.29,0,0,1,4.15,6.16,20.38,20.38,0,0,1,1.51,8c0,.73,0,1.57-.14,2.51A29,29,0,0,1,142.15,716.67Zm-19-16.42q-8.94,0-11,9.4h20A10.31,10.31,0,0,0,130,703Q127.82,700.24,123.17,700.25Z"/><path d="M176.09,691.31l-2,10.12h-3.83a10.31,10.31,0,0,0-5.25,1.46,9.28,9.28,0,0,0-3.6,3.47v31.3H150.81V692.31h9.4l.55,5.66q6-6.66,13.05-6.66Z"/><path d="M221.89,737.66H211.58V713.11q0-6.66-2.33-9.76t-7.52-3.1q-6.39,0-9.77,4.47v32.94H181.65V692.31H191l.36,3.38a18.12,18.12,0,0,1,11.5-4.2q19.06,0,19.07,21.62Z"/><path d="M270.79,730.08l-1,8.49h-3.1q-7.67,0-10.59-5.66-4.92,5.65-13.86,5.66a14.72,14.72,0,0,1-5.39-1,12.07,12.07,0,0,1-4.24-2.74,12.43,12.43,0,0,1-2.78-4.29,14.68,14.68,0,0,1-1-5.51,11.23,11.23,0,0,1,2.69-7.71,20.42,20.42,0,0,1,6.62-4.93,32.1,32.1,0,0,1,8.44-2.65,58.16,58.16,0,0,1,8.26-.86c-.07-3.11-.77-5.28-2.1-6.53s-3.56-1.87-6.66-1.87q-5.56,0-12.23,3.65l-1.09-8.39a33.25,33.25,0,0,1,16.15-4.29q8.21,0,12.27,4.52t4.06,14.82v11.32c0,1.7,0,3.07.13,4.1a6.56,6.56,0,0,0,.6,2.42,2.18,2.18,0,0,0,1.32,1.14,8.08,8.08,0,0,0,2.33.27Zm-16-3.65V715.94a26.63,26.63,0,0,0-11,2.42q-4.2,2.14-4.2,6.25,0,5.92,6.39,5.93a11.47,11.47,0,0,0,4.65-1.1A12.38,12.38,0,0,0,254.83,726.43Z"/><path d="M293.51,730.08l-1,8.49h-3.65q-5.85,0-8.76-3.29a12,12,0,0,1-2.92-8.3V669.23h10.4v53.1a39.57,39.57,0,0,0,.18,4.29,4.64,4.64,0,0,0,.78,2.32,2.61,2.61,0,0,0,1.78,1A22.23,22.23,0,0,0,293.51,730.08Z"/><path d="M334.2,738.57q-10.12,0-15.42-3.56l1-9.12a19.58,19.58,0,0,0,2.69,1.64A25.65,25.65,0,0,0,326,729a30.78,30.78,0,0,0,3.92,1,20.51,20.51,0,0,0,4,.41c2.61,0,4.53-.49,5.74-1.46a4.57,4.57,0,0,0,1.83-3.74,4.38,4.38,0,0,0-2-3.65A20.59,20.59,0,0,0,334.7,719q-2.77-1.1-5.79-2a24.7,24.7,0,0,1-5-2.14q-4.47-2.65-4.47-9.13a15.26,15.26,0,0,1,1-5.33,12,12,0,0,1,3-4.57,15.23,15.23,0,0,1,5.2-3.14,21.4,21.4,0,0,1,7.53-1.19q8.29,0,13.68,3.28l-1,9a17.46,17.46,0,0,0-12-4.57,11.41,11.41,0,0,0-5.71,1.28,4.29,4.29,0,0,0-2.23,4,4.57,4.57,0,0,0,.87,2.92,6.84,6.84,0,0,0,2.32,1.82,16,16,0,0,0,3.33,1.19c1.25.3,2.54.63,3.88,1q12.58,3.2,12.59,13.78a16.81,16.81,0,0,1-.64,4.51,10.21,10.21,0,0,1-2.55,4.34,14,14,0,0,1-5.39,3.28A26.62,26.62,0,0,1,334.2,738.57Z"/><path d="M398,716.67H367.59q.92,6.8,5,10a15.17,15.17,0,0,0,9.62,3.17,30.73,30.73,0,0,0,13.69-3.28l.73,8.57a34.2,34.2,0,0,1-15.15,3.47,28.38,28.38,0,0,1-10.4-1.78,21.82,21.82,0,0,1-7.71-5,21.51,21.51,0,0,1-4.79-7.48,26.22,26.22,0,0,1-1.64-9.4,27.31,27.31,0,0,1,1.5-9.17,22.18,22.18,0,0,1,4.38-7.44,20.8,20.8,0,0,1,6.89-5,22,22,0,0,1,9.13-1.82,21.53,21.53,0,0,1,7.89,1.41,19,19,0,0,1,6.25,4,18.29,18.29,0,0,1,4.15,6.16,20.56,20.56,0,0,1,1.51,8c0,.73-.05,1.57-.14,2.51A29,29,0,0,1,398,716.67Zm-19-16.42q-8.94,0-10.95,9.4h20a10.31,10.31,0,0,0-2.19-6.66Q383.65,700.24,379,700.25Z"/><path d="M431.92,691.31l-2,10.12h-3.83a10.31,10.31,0,0,0-5.25,1.46,9.28,9.28,0,0,0-3.6,3.47v31.3H406.64V692.31H416l.55,5.66q6-6.66,13-6.66Z"/><path d="M476.8,692.31l-17.33,45.35h-9.58l-17.34-45.35h10.5l11.58,32.85,11.59-32.85Z"/><path d="M520.23,716.67H489.85q.91,6.8,5,10a15.22,15.22,0,0,0,9.63,3.17,30.76,30.76,0,0,0,13.69-3.28l.73,8.57a34.2,34.2,0,0,1-15.15,3.47,28.38,28.38,0,0,1-10.4-1.78,21.82,21.82,0,0,1-7.71-5,21.37,21.37,0,0,1-4.79-7.48,26,26,0,0,1-1.64-9.4,27.31,27.31,0,0,1,1.5-9.17,22.18,22.18,0,0,1,4.38-7.44,20.7,20.7,0,0,1,6.89-5,21.94,21.94,0,0,1,9.12-1.82,21.55,21.55,0,0,1,7.9,1.41,19,19,0,0,1,6.25,4,18.44,18.44,0,0,1,4.15,6.16,20.55,20.55,0,0,1,1.5,8c0,.73,0,1.57-.13,2.51A29.18,29.18,0,0,1,520.23,716.67Zm-19-16.42q-9,0-10.95,9.4h20A10.31,10.31,0,0,0,508.1,703Q505.91,700.24,501.26,700.25Z"/><path d="M554.17,691.31l-2,10.12h-3.83a10.31,10.31,0,0,0-5.25,1.46,9.28,9.28,0,0,0-3.6,3.47v31.3H528.9V692.31h9.4l.55,5.66q6-6.66,13-6.66Z"/><path d="M618.5,716.67H588.11q.92,6.8,5,10a15.17,15.17,0,0,0,9.62,3.17,30.76,30.76,0,0,0,13.69-3.28l.73,8.57A34.2,34.2,0,0,1,602,738.57a28.38,28.38,0,0,1-10.4-1.78,21.82,21.82,0,0,1-7.71-5,21.51,21.51,0,0,1-4.79-7.48,26.22,26.22,0,0,1-1.64-9.4,27.31,27.31,0,0,1,1.5-9.17,22.18,22.18,0,0,1,4.38-7.44,20.8,20.8,0,0,1,6.89-5,22,22,0,0,1,9.13-1.82,21.53,21.53,0,0,1,7.89,1.41,19,19,0,0,1,6.25,4,18.29,18.29,0,0,1,4.15,6.16,20.55,20.55,0,0,1,1.5,8c0,.73,0,1.57-.13,2.51A29,29,0,0,1,618.5,716.67Zm-19-16.42q-8.94,0-10.95,9.4h20a10.31,10.31,0,0,0-2.19-6.66Q604.17,700.24,599.52,700.25Z"/><path d="M652.43,691.31l-2,10.12H646.6a10.31,10.31,0,0,0-5.25,1.46,9.28,9.28,0,0,0-3.6,3.47v31.3H627.16V692.31h9.4l.55,5.66q6-6.66,13-6.66Z"/><path d="M683.27,691.31l-2,10.12h-3.84a10.3,10.3,0,0,0-5.24,1.46,9.24,9.24,0,0,0-3.61,3.47v31.3H658V692.31h9.4l.54,5.66q6-6.66,13-6.66Z"/><path d="M685,715a26.65,26.65,0,0,1,1.59-9.26,21.77,21.77,0,0,1,4.57-7.48,21.28,21.28,0,0,1,7.2-5,23.8,23.8,0,0,1,9.45-1.82,23.4,23.4,0,0,1,9.39,1.82,21.23,21.23,0,0,1,7.17,5,23,23,0,0,1,4.6,7.48,25.45,25.45,0,0,1,1.65,9.22,26.25,26.25,0,0,1-1.6,9.21,22.53,22.53,0,0,1-4.56,7.49,20.94,20.94,0,0,1-7.21,5,25.39,25.39,0,0,1-18.93,0,21.25,21.25,0,0,1-7.16-5,21.83,21.83,0,0,1-4.57-7.43A26.57,26.57,0,0,1,685,715Zm10.58,0q0,6.82,3.24,10.83a12.09,12.09,0,0,0,18,0q3.24-4,3.24-10.83c0-4.54-1.08-8.14-3.24-10.77a12.17,12.17,0,0,0-18,0C696.67,706.84,695.59,710.44,695.59,715Z"/><path d="M764,691.31l-2,10.12h-3.83a10.36,10.36,0,0,0-5.25,1.46,9.28,9.28,0,0,0-3.6,3.47v31.3H738.75V692.31h9.39l.55,5.66q6-6.66,13-6.66Z"/><path class="cls-3" d="M262.32,646.45a49.57,49.57,0,0,1-8.93-.87q-4.66-.87-8.77-2.06a50.14,50.14,0,0,1-7-2.53q-2.93-1.34-3.55-2.45l4.42-17.07a37.39,37.39,0,0,0,23.39,7.75,29.23,29.23,0,0,0,8.93-1.34,20.46,20.46,0,0,0,7.27-4,19.68,19.68,0,0,0,4.9-6.56,20.82,20.82,0,0,0,1.82-8.93,17.69,17.69,0,0,0-1.5-7.51,13.61,13.61,0,0,0-4.9-5.53,24.63,24.63,0,0,0-9-3.4,72.58,72.58,0,0,0-13.67-1.11h-15.8l6.79-57h50.58l-1.74,17.7H260.9L258.05,575q23.86.16,34.53,8t10.67,24.58a38.3,38.3,0,0,1-3.32,16.2A37.3,37.3,0,0,1,291,636a38.91,38.91,0,0,1-13,7.75A45.67,45.67,0,0,1,262.32,646.45Z"/><path class="cls-3" d="M366.47,646.6a42.4,42.4,0,0,1-18.65-4,41.61,41.61,0,0,1-14.38-11.38,52.31,52.31,0,0,1-9.25-17.62A75.4,75.4,0,0,1,321,590.81,74.46,74.46,0,0,1,324.58,567a59.62,59.62,0,0,1,10-18.73,46.78,46.78,0,0,1,15-12.33,40.54,40.54,0,0,1,18.73-4.42,39.3,39.3,0,0,1,18.26,4.27A44.71,44.71,0,0,1,401,547.59a55.85,55.85,0,0,1,9.48,17.86,72.22,72.22,0,0,1,3.4,22.68,78.13,78.13,0,0,1-3.4,23.7,57,57,0,0,1-9.56,18.5,42.91,42.91,0,0,1-14.94,12A44,44,0,0,1,366.47,646.6Zm1.58-98.46a22.55,22.55,0,0,0-10.83,2.77,26.47,26.47,0,0,0-9,8.22,42.6,42.6,0,0,0-6.08,13.43,68.3,68.3,0,0,0-2.21,18.25q0,19.61,7.26,29.32a23.22,23.22,0,0,0,19.6,9.72,24.58,24.58,0,0,0,20.71-10.35q7.74-10.35,7.74-31.37a62.27,62.27,0,0,0-2.13-17,40.64,40.64,0,0,0-5.77-12.57,25.59,25.59,0,0,0-8.62-7.74A22.09,22.09,0,0,0,368.05,548.14Z"/><path class="cls-3" d="M478.36,646.6a42.4,42.4,0,0,1-18.65-4,41.61,41.61,0,0,1-14.38-11.38,52.31,52.31,0,0,1-9.25-17.62,75.4,75.4,0,0,1-3.24-22.76A74.18,74.18,0,0,1,436.48,567a59.6,59.6,0,0,1,10-18.73,46.71,46.71,0,0,1,15-12.33,40.47,40.47,0,0,1,18.72-4.42,39.27,39.27,0,0,1,18.26,4.27,44.71,44.71,0,0,1,14.38,11.77,55.65,55.65,0,0,1,9.48,17.86,72.22,72.22,0,0,1,3.4,22.68,78.13,78.13,0,0,1-3.4,23.7,56.85,56.85,0,0,1-9.56,18.5,43,43,0,0,1-14.93,12A44.11,44.11,0,0,1,478.36,646.6Zm1.58-98.46a22.57,22.57,0,0,0-10.83,2.77,26.47,26.47,0,0,0-9,8.22A42.6,42.6,0,0,0,454,572.56a68.3,68.3,0,0,0-2.21,18.25q0,19.61,7.27,29.32a23.2,23.2,0,0,0,19.59,9.72,24.58,24.58,0,0,0,20.71-10.35q7.74-10.35,7.74-31.37a62.27,62.27,0,0,0-2.13-17,40.41,40.41,0,0,0-5.77-12.57,25.65,25.65,0,0,0-8.61-7.74A22.16,22.16,0,0,0,479.94,548.14Z"/><circle class="cls-4" cx="379.06" cy="313.56" r="179.11"/><path d="M357,115.64h4.66a7.76,7.76,0,0,1,7.76,7.76v30.83a0,0,0,0,1,0,0H357a0,0,0,0,1,0,0V115.64A0,0,0,0,1,357,115.64Z" transform="translate(726.43 269.88) rotate(180)"/><path class="cls-5" d="M361.25,115.52h44a0,0,0,0,1,0,0v31.29a19.45,19.45,0,0,1-19.45,19.45H372.13a10.89,10.89,0,0,1-10.89-10.89V115.52A0,0,0,0,1,361.25,115.52Z"/><path class="cls-3" d="M276.44,440.76H472.07l-24.56-222a28.13,28.13,0,0,0-28-25H329a28.14,28.14,0,0,0-28,25l-10.89,98.49Z"/><polygon class="cls-6" points="395.38 193.7 392.5 248.95 359.49 193.7 395.38 193.7"/><polygon class="cls-5" points="370.23 154.23 390.81 149.53 395.38 193.7 384.95 197.6 359.49 193.7 370.23 154.23"/><path d="M385.12,114a13.14,13.14,0,1,0,13.14-13.15A13.14,13.14,0,0,0,385.12,114Z"/><path d="M357,106.77h40.15a0,0,0,0,1,0,0v10.09a10.31,10.31,0,0,1-10.31,10.31H357a0,0,0,0,1,0,0V106.77A0,0,0,0,1,357,106.77Z" transform="translate(754.16 233.95) rotate(180)"/><path class="cls-5" d="M359,143.15a4.22,4.22,0,1,0,4.22-4.22A4.21,4.21,0,0,0,359,143.15Z"/><path class="cls-3" d="M595.22,178.94l-32.09,95.6a22.68,22.68,0,0,1-30.6,11.27L411.18,227.3,427,194.59l109.94,53,42.41-69.79Z"/><path class="cls-3" d="M323.72,387.7l6.59-14.52L275.93,307.6l67.6-86.7-36.62-16.56L239,295.17a22.69,22.69,0,0,0,4.87,32Z"/><path class="cls-5" d="M595.22,178.94l1.43-16.18a15.2,15.2,0,0,0-3.85-11.55l-8.88-9.86a.86.86,0,0,0-1.48.72l2.76,15.79a4.43,4.43,0,0,1-1.7,4.31,11.3,11.3,0,0,0-4.49,9.57l.3,6.08Z"/><path class="cls-5" d="M323.7,387.71l14.66,7a15.17,15.17,0,0,0,12.17.43l12.33-4.89a.85.85,0,0,0-.16-1.63l-15.76-2.92a4.47,4.47,0,0,1-3.45-3.11,11.26,11.26,0,0,0-7.4-7.54l-5.8-1.83Z"/><g class="cls-7"><rect class="cls-8" x="277.03" y="440.76" width="194.72" height="60.55"/></g></g></g></svg>