<svg id="Grupo_1024" data-name="Grupo 1024" xmlns="http://www.w3.org/2000/svg" xmlns:xlink="http://www.w3.org/1999/xlink" width="22.123" height="25.458" viewBox="0 0 22.123 25.458">
  <defs>
    <clipPath id="clip-path">
      <rect id="Rectángulo_157" data-name="Rectángulo 157" width="22.123" height="25.458" fill="#a4a3aa" stroke="#1c1b2b" stroke-width="0.7"/>
    </clipPath>
  </defs>
  <g id="Grupo_1023" data-name="Grupo 1023" clip-path="url(#clip-path)">
    <path id="Trazado_1035" data-name="Trazado 1035" d="M22.123,17.582a5.068,5.068,0,0,1-.23,1.536,3.067,3.067,0,0,1-.151.391,4.261,4.261,0,0,1-4.1,2.608c-3.812.011-7.623,0-11.435.013a1.19,1.19,0,0,0-.655.22c-1.267.928-2.52,1.874-3.773,2.821a1.093,1.093,0,0,1-1.131.207.975.975,0,0,1-.636-.836A2.232,2.232,0,0,1,0,24.267Q0,14.356,0,4.446A4.382,4.382,0,0,1,4.385,0H18.31a1.339,1.339,0,0,1,.143.013,4.258,4.258,0,0,1,3.088,2.224l.008.015a4.8,4.8,0,0,1,.573,2.291ZM2.081,22.327c.144-.1.237-.16.326-.226.739-.554,1.485-1.1,2.213-1.667a1.825,1.825,0,0,1,1.183-.4q5.839.011,11.677,0a3.421,3.421,0,0,0,.757-.058A2.288,2.288,0,0,0,20.042,17.6q0-6.48,0-12.959a2.332,2.332,0,0,0-2.56-2.557c-4.274,0-8.547.024-12.821-.013A2.448,2.448,0,0,0,2.068,4.646c.034,5.752.014,11.5.014,17.256v.426" transform="translate(0 0)" fill="#a4a3aa" stroke="#1c1b2b" stroke-width="0.7"/>
    <path id="Trazado_1036" data-name="Trazado 1036" d="M70.785,82.341q-2.65,0-5.3,0a2.248,2.248,0,0,1-.516-.038,1.029,1.029,0,0,1,.042-2,1.786,1.786,0,0,1,.378-.04q5.421,0,10.843,0a1.577,1.577,0,0,1,.573.1,1.024,1.024,0,0,1-.339,1.96c-.484.023-.97.012-1.455.013H70.785" transform="translate(-59.756 -74.697)" fill="#a4a3aa" stroke="#1c1b2b" stroke-width="0.7"/>
    <path id="Trazado_1037" data-name="Trazado 1037" d="M70.788,146.734c-1.755,0-3.51,0-5.265,0a2.29,2.29,0,0,1-.617-.066,1.029,1.029,0,0,1,.168-1.991,2.708,2.708,0,0,1,.38-.02q5.369,0,10.739,0c.681,0,1.074.271,1.2.813a1.013,1.013,0,0,1-.787,1.225,2.747,2.747,0,0,1-.516.039q-2.65,0-5.3,0" transform="translate(-59.755 -134.626)" fill="#a4a3aa" stroke="#1c1b2b" stroke-width="0.7"/>
    <path id="Trazado_1038" data-name="Trazado 1038" d="M68.052,208.913c.888,0,1.776,0,2.665,0a1.042,1.042,0,1,1-.007,2.077q-2.682.008-5.364,0a1.058,1.058,0,0,1-1.137-1.045,1.047,1.047,0,0,1,1.144-1.031c.9,0,1.8,0,2.7,0" transform="translate(-59.758 -194.43)" fill="#a4a3aa" stroke="#1c1b2b" stroke-width="0.7"/>
  </g>
</svg>
