<svg xmlns="http://www.w3.org/2000/svg" width="29" height="29" viewBox="0 0 29 29">
  <g id="Grupo_1020" data-name="Grupo 1020" transform="translate(-2583.771 -2624)">
    <rect id="Rectángulo_36" data-name="Rectángulo 36" width="29" height="29" transform="translate(2583.771 2624)" fill="#a4a3aa" opacity="0"/>
    <path id="Trazado_24" data-name="Trazado 24" d="M2598.408,2626.182l.715,1.8.2.518.527.144a7.906,7.906,0,0,1,2.239,1.008l.492.323.551-.23,1.881-.785.837.858-.935,2.084-.215.481.236.469a8.476,8.476,0,0,1,.643,1.727l.142.547.528.209,2.2.872v1.206l-2.229.882-.522.206-.145.539a8.605,8.605,0,0,1-.739,1.858l-.253.466.2.488.9,2.162-.858.835-1.946-.872-.536-.241-.5.3a7.855,7.855,0,0,1-1.925.832l-.528.149-.2.513-.762,1.924h-1.19l-.762-1.924-.2-.513-.525-.147a7.807,7.807,0,0,1-2.088-.936l-.5-.317-.544.226-1.988.831-.837-.858.966-2.151.216-.483-.241-.472a8.516,8.516,0,0,1-.631-1.651l-.146-.538-.521-.206-2.246-.889v-1.206l2.214-.876.529-.209.141-.548a8.578,8.578,0,0,1,.734-1.906l.247-.464-.2-.484-.883-2.112.858-.835,1.856.832.546.245.5-.311a7.924,7.924,0,0,1,2.06-.9l.515-.144.2-.515.717-1.811Zm.769-1.182h-2.729l-1,2.531a8.939,8.939,0,0,0-2.336,1.026l-2.566-1.151-1.955,1.905,1.178,2.823a9.777,9.777,0,0,0-.833,2.167l-2.935,1.162v2.729l2.968,1.174a9.61,9.61,0,0,0,.719,1.876l-1.28,2.854,1.9,1.955,2.708-1.131a8.982,8.982,0,0,0,2.4,1.076l1.047,2.645h2.729l1.047-2.645a8.92,8.92,0,0,0,2.2-.953l2.657,1.193,1.955-1.906-1.2-2.872a9.709,9.709,0,0,0,.838-2.111l2.95-1.168v-2.729l-2.924-1.157a9.7,9.7,0,0,0-.732-1.961l1.251-2.786-1.906-1.955-2.6,1.085a8.974,8.974,0,0,0-2.552-1.151l-1-2.523Zm-1.284,6.989a4.87,4.87,0,1,1-4.923,4.869,4.9,4.9,0,0,1,4.923-4.869Zm0-1.113a5.982,5.982,0,1,0,6.046,5.981,6.014,6.014,0,0,0-6.046-5.981Z" transform="translate(0.251 0.126)" fill="#a4a3aa"/>
  </g>
</svg>
