<?xml version="1.0" encoding="utf-8"?>
<!-- Generator: Adobe Illustrator 26.0.3, SVG Export Plug-In . SVG Version: 6.00 Build 0)  -->
<svg version="1.1" id="Capa_1" xmlns="http://www.w3.org/2000/svg" xmlns:xlink="http://www.w3.org/1999/xlink" x="0px" y="0px"
	 viewBox="0 0 292.3 247.4" style="enable-background:new 0 0 292.3 247.4;" xml:space="preserve">
<style type="text/css">
	.st0{clip-path:url(#SVGID_00000040544747568187319810000005372848228425444500_);}
	.st1{fill:#282736;}
	.st2{fill:#FFFFFF;}
	.st3{fill-rule:evenodd;clip-rule:evenodd;fill:#8070F2;}
	.st4{fill:#FC6602;}
	.st5{clip-path:url(#SVGID_00000106111287062906756010000009496782926659493769_);}
	.st6{fill:#1C222D;}
	.st7{fill:#1C1B2B;}
	.st8{fill:#8070F2;}
	.st9{clip-path:url(#SVGID_00000072972345984807775490000016754511090436861586_);}
</style>
<g id="Grupo_1538" transform="translate(-960 -441.301)">
	<g id="Grupo_1534" transform="translate(1004.279 517.851)">
		<g>
			<defs>
				<rect id="SVGID_1_" x="-6.9" y="12.2" width="203.8" height="135.5"/>
			</defs>
			<clipPath id="SVGID_00000060718613893924664650000012035326126276912546_">
				<use xlink:href="#SVGID_1_"  style="overflow:visible;"/>
			</clipPath>
			
				<g id="Grupo_1499" transform="translate(0 0)" style="clip-path:url(#SVGID_00000060718613893924664650000012035326126276912546_);">
				<path id="Trazado_1363" class="st1" d="M18.4,129.4h153.3c5,0,9.1-4.1,9.1-9.1v-99c0-5-4.1-9.1-9.1-9.1H18.4
					c-5,0-9.1,4.1-9.1,9.1v99C9.3,125.3,13.3,129.4,18.4,129.4 M12.5,21.3c0-3.2,2.6-5.8,5.8-5.8h153.3c3.2,0,5.8,2.6,5.8,5.8v99
					c0,3.2-2.6,5.8-5.8,5.8H18.4c-3.2,0-5.8-2.6-5.8-5.8L12.5,21.3z"/>
				<path id="Trazado_1364" class="st1" d="M194.6,134.4c-1.5-1.5-3.4-2.3-5.5-2.3H0.9c-4.3,0-7.8,3.5-7.8,7.8
					c0,4.3,3.5,7.8,7.8,7.8h188.1c4.3,0,7.8-3.5,7.8-7.8C196.9,137.9,196.1,135.9,194.6,134.4 M192.3,143.1c-0.9,0.9-2,1.3-3.2,1.3
					H0.9c-2.5-0.1-4.5-2.1-4.5-4.6c0.1-2.4,2-4.4,4.5-4.5h188.1c2.5,0,4.5,2,4.6,4.5C193.6,141.1,193.1,142.3,192.3,143.1"/>
				<path id="Trazado_1365" class="st2" d="M18.4,126.1h153.3c3.2,0,5.8-2.6,5.8-5.8v-99c0-3.2-2.6-5.8-5.8-5.8H18.4
					c-3.2,0-5.8,2.6-5.8,5.8v99C12.5,123.5,15.1,126.1,18.4,126.1"/>
				<path id="Trazado_1366" class="st2" d="M189.1,135.4H0.9c-2.5,0.1-4.5,2.1-4.5,4.6c0.1,2.4,2,4.4,4.5,4.5h188.1
					c2.5-0.1,4.5-2.1,4.5-4.6C193.5,137.4,191.5,135.4,189.1,135.4 M110.4,141.6H79.6c-0.9,0-1.6-0.7-1.6-1.6s0.7-1.6,1.6-1.6h30.8
					c0.9,0,1.6,0.7,1.6,1.6S111.3,141.6,110.4,141.6L110.4,141.6"/>
				<path id="Trazado_1367" class="st1" d="M110.4,138.3H79.6c-0.9,0-1.6,0.7-1.6,1.6s0.7,1.6,1.6,1.6h30.8c0.9,0,1.6-0.7,1.6-1.6
					S111.3,138.3,110.4,138.3"/>
				<path id="Trazado_1368" class="st3" d="M169.6,121.4H20.5c-1.9,0-3.4-1.5-3.4-3.4l0,0V23.6c0-1.9,1.5-3.4,3.4-3.4l0,0h149.1
					c1.9,0,3.4,1.5,3.4,3.4l0,0V118C173,119.9,171.4,121.4,169.6,121.4L169.6,121.4"/>
			</g>
		</g>
	</g>
	<g id="Grupo_1535" transform="translate(1145.861 508.574)">
		<path id="Trazado_1376" class="st4" d="M-4.6,119.8H97.7V60H47.9l-7.7-10l-44.7,0.8L-4.6,119.8z"/>
		<g id="Grupo_1507" transform="translate(0 0)">
			<g>
				<defs>
					<rect id="SVGID_00000178887574396571921100000003126380945675909054_" x="-6.9" y="12.2" width="106.5" height="109.9"/>
				</defs>
				<clipPath id="SVGID_00000101824205622172238210000017659465148304549310_">
					<use xlink:href="#SVGID_00000178887574396571921100000003126380945675909054_"  style="overflow:visible;"/>
				</clipPath>
				<g id="Grupo_1506" style="clip-path:url(#SVGID_00000101824205622172238210000017659465148304549310_);">
					<path id="Trazado_1377" class="st6" d="M95.3,58h-4.1V13.8c0-0.9-0.7-1.5-1.5-1.5c0,0,0,0,0,0H24.2c-0.9,0-1.5,0.7-1.5,1.5v7.8
						h-6.8c-0.9,0-1.5,0.7-1.5,1.5c0,0,0,0,0,0v7.8H7.5c-0.9,0-1.5,0.7-1.5,1.5v16.7h-8.5c-2.4,0-4.3,1.9-4.3,4.3v64.4
						c0,2.4,1.9,4.3,4.3,4.3h97.9c2.4,0,4.3-1.9,4.3-4.3V62.3C99.6,59.9,97.7,58,95.3,58 M25.7,15.3h62.4V58h-5.3V23.1
						c0-0.9-0.7-1.5-1.5-1.5H25.7V15.3z M17.4,24.7h62.4V58h-5.3V32.5c0-0.9-0.7-1.5-1.5-1.5H17.4L17.4,24.7z M9,34h62.4v24H49.2
						c-0.6,0-1.2-0.3-1.6-0.8l-4.4-6c-1-1.3-2.5-2.1-4.1-2.1H9L9,34z M96.5,117.9c0,0.7-0.5,1.2-1.2,1.2H-2.6
						c-0.7,0-1.2-0.5-1.2-1.2V53.4c0-0.7,0.5-1.2,1.2-1.2c0,0,0,0,0,0h41.7c0.6,0,1.2,0.3,1.6,0.8l4.4,6c1,1.3,2.5,2.1,4.1,2.1h46.1
						c0.7,0,1.2,0.5,1.2,1.2L96.5,117.9z"/>
					<path id="Trazado_1378" class="st2" d="M25.8,15.4h62.4v42.7h-5.3V23.2c0-0.9-0.7-1.5-1.5-1.5H25.8V15.4z"/>
					<path id="Trazado_1379" class="st2" d="M17.4,24.7h62.4v33.3h-5.3V32.6c0-0.9-0.7-1.5-1.5-1.5H17.4V24.7z"/>
					<path id="Trazado_1380" class="st2" d="M9.1,34.1h62.4v24H49.3c-0.6,0-1.2-0.3-1.6-0.8l-4.4-6c-1-1.3-2.5-2.1-4.1-2.1H9.1V34.1
						z"/>
				</g>
			</g>
		</g>
	</g>
	<g id="Grupo_1536" transform="translate(973.752 441.301)">
		<rect id="Rectángulo_520" x="-6.9" y="30.1" class="st2" width="83" height="104.4"/>
		<path id="Rectángulo_520_-_Contorno" class="st7" d="M-3.9,33.1v98.4h77V33.1H-3.9 M-6.9,30.1h83v104.4h-83V30.1z"/>
		<path id="Trazado_1371" class="st1" d="M58.7,100.3H9.5c-1.1,0-2-0.9-2-2s0.9-2,2-2h49.2c1.1,0,2,0.9,2,2S59.8,100.3,58.7,100.3z"
			/>
		<path id="Rectángulo_521" class="st8" d="M24.3,78.2h30.3c3.4,0,6.2,2.8,6.2,6.2l0,0c0,3.4-2.8,6.2-6.2,6.2H24.3
			c-3.4,0-6.2-2.8-6.2-6.2l0,0C18.1,81,20.9,78.2,24.3,78.2z"/>
		<path id="Trazado_1372" class="st1" d="M58.7,111.3H9.5c-1.1,0-2-0.9-2-2s0.9-2,2-2h49.2c1.1,0,2,0.9,2,2S59.8,111.3,58.7,111.3z"
			/>
		<g id="person" transform="translate(33.879 35.686)">
			<path id="Trazado_1373" d="M5.4,13.6c-1.8-1.8-4.7-1.9-6.5-0.1c0,0-0.1,0.1-0.1,0.1c-0.9,0.9-1.3,2.2-1.2,3.5
				c0.2,2.6,2.2,4.8,4.5,4.8s4.3-2.1,4.5-4.8C6.7,15.8,6.3,14.6,5.4,13.6z"/>
			<path id="Trazado_1374" d="M9.7,31.6H-5.5c-0.4,0-0.8-0.2-1-0.5c-0.3-0.4-0.4-0.8-0.3-1.3c0.4-2,1.6-3.8,3.3-4.9
				c1.7-1.1,3.7-1.7,5.7-1.6c2,0,4,0.6,5.7,1.6c1.7,1.1,2.9,2.9,3.3,4.9c0.1,0.4,0,0.9-0.3,1.3C10.5,31.4,10.1,31.6,9.7,31.6z"/>
		</g>
		<g id="Grupo_1505" transform="translate(11.742 64.641)">
			<g>
				<defs>
					<rect id="SVGID_00000144309808270420019070000000342001339633928614_" x="-6.9" y="12.2" width="9.4" height="15.2"/>
				</defs>
				<clipPath id="SVGID_00000096764699472250858830000006990650635377643655_">
					<use xlink:href="#SVGID_00000144309808270420019070000000342001339633928614_"  style="overflow:visible;"/>
				</clipPath>
				
					<g id="Grupo_1504" transform="translate(0 0)" style="clip-path:url(#SVGID_00000096764699472250858830000006990650635377643655_);">
					<path id="Trazado_1375" d="M-2,12.2c0.4,0,0.8,0.3,0.8,0.7c0,0,0,0,0,0v0.4c1,0.1,1.9,0.4,2.7,1C1.8,14.5,2,14.8,2,15.2
						c0,0.5-0.4,1-1,1c0,0,0,0,0,0c-0.2,0-0.4-0.1-0.5-0.2c-0.6-0.4-1.2-0.6-1.8-0.8v3.4c2.7,0.7,3.8,1.7,3.8,3.6
						c0,1.9-1.5,3.2-3.8,3.4v1.1c0,0.4-0.3,0.8-0.7,0.8c0,0,0,0,0,0c-0.4,0-0.8-0.3-0.8-0.8v-1.1c-1.3-0.1-2.5-0.6-3.6-1.4
						c-0.3-0.2-0.5-0.5-0.5-0.8c0-0.5,0.4-1,0.9-1c0,0,0,0,0,0c0.2,0,0.4,0.1,0.6,0.2c0.8,0.6,1.7,1,2.6,1.2v-3.5
						c-2.6-0.7-3.8-1.6-3.8-3.6c0-1.9,1.5-3.2,3.7-3.4V13C-2.8,12.6-2.4,12.2-2,12.2 M-2.7,18.2v-3.1c-1.1,0.1-1.7,0.7-1.7,1.5
						C-4.4,17.3-4.1,17.8-2.7,18.2 M-1.3,20.7v3.2c1.1-0.1,1.7-0.7,1.7-1.5C0.4,21.6,0,21.1-1.3,20.7"/>
				</g>
			</g>
		</g>
		<g id="Icon" transform="translate(58.882 0)">
			<circle id="Elipse_5" class="st2" cx="11" cy="30.1" r="17.8"/>
			<path id="Elipse_5_-_Contorno" class="st1" d="M11,15.2c-8.2,0-14.8,6.6-14.8,14.8c0,3.9,1.6,7.7,4.3,10.5c5.8,5.8,15.2,5.8,21,0
				s5.8-15.2,0-21l0,0C18.7,16.8,14.9,15.2,11,15.2 M11,12.2c9.9,0,17.8,8,17.8,17.8s-8,17.8-17.8,17.8s-17.8-8-17.8-17.8
				S1.1,12.2,11,12.2C11,12.2,11,12.2,11,12.2z"/>
			<g id="Grupo_11" transform="translate(8.392 8.476)">
				<path id="Línea_4" class="st1" d="M2.6,32.5c-0.8,0-1.5-0.7-1.5-1.5V12.2c0-0.8,0.7-1.5,1.5-1.5s1.5,0.7,1.5,1.5V31
					C4.1,31.8,3.4,32.5,2.6,32.5z"/>
				<path id="Línea_5" class="st1" d="M-8.4,21.6c0-0.8,0.7-1.5,1.5-1.5H12c0.8,0,1.5,0.7,1.5,1.5c0,0.8-0.7,1.5-1.5,1.5H-6.9
					C-7.7,23.1-8.4,22.4-8.4,21.6z"/>
			</g>
		</g>
	</g>
	<g id="Icon-2" transform="translate(1181.248 567.761)">
		<circle id="Elipse_5-2" class="st2" cx="11" cy="30.1" r="17.8"/>
		<path id="Elipse_5_-_Contorno-2" class="st1" d="M11,15.2c-8.2,0-14.8,6.6-14.8,14.8c0,3.9,1.6,7.7,4.3,10.5
			c5.8,5.8,15.2,5.8,21,0s5.8-15.2,0-21l0,0C18.7,16.8,14.9,15.2,11,15.2 M11,12.2c9.9,0,17.8,8,17.8,17.8s-8,17.8-17.8,17.8
			s-17.8-8-17.8-17.8C-6.9,20.2,1.1,12.2,11,12.2C11,12.2,11,12.2,11,12.2z"/>
		<path id="Trazado_1381" class="st1" d="M7.6,37.7l-6.3-6.6c-0.6-0.6-0.5-1.6,0.1-2.1C2,28.4,3,28.4,3.5,29l4.3,4.5l10.8-9.7
			c0.6-0.6,1.5-0.6,2.1,0c0.6,0.6,0.6,1.5,0,2.1c0,0-0.1,0.1-0.1,0.1L7.6,37.7z"/>
	</g>
</g>
</svg>
