<svg width="123" height="36" viewBox="0 0 123 36" fill="none" xmlns="http://www.w3.org/2000/svg">
<g clip-path="url(#clip0_962_3)">
<path d="M122.77 19.6922H117.227V14.084H113.166V19.6922H107.623V23.7526H113.166V29.3608H117.227V23.7526H122.77V19.6922Z" fill="black"/>
<path d="M65.5047 23.9258C66.5953 23.9258 67.6613 23.6025 68.5681 22.9967C69.4749 22.3909 70.1816 21.5299 70.5989 20.5225C71.0163 19.515 71.1255 18.4065 70.9127 17.3371C70.7 16.2676 70.1748 15.2852 69.4037 14.5142C68.6325 13.7432 67.6501 13.2181 66.5804 13.0054C65.5108 12.7926 64.4021 12.9018 63.3946 13.3191C62.387 13.7364 61.5259 14.443 60.92 15.3497C60.3141 16.2563 59.9907 17.3222 59.9907 18.4126C59.9905 19.1367 60.1329 19.8537 60.4099 20.5228C60.6869 21.1918 61.093 21.7996 61.6051 22.3116C62.1172 22.8237 62.7252 23.2297 63.3943 23.5067C64.0634 23.7837 64.7805 23.9261 65.5047 23.9258Z" fill="black"/>
<path d="M101.026 34.5688L95.4916 22.3405C98.7913 20.3778 100.443 17.0413 100.443 12.9629C100.443 6.4318 96.2216 1.71747 87.7263 1.71747H73.9495C73.8844 1.71395 73.8192 1.72427 73.7583 1.74776C73.6974 1.77126 73.6422 1.80739 73.5963 1.85377C73.5504 1.90016 73.5148 1.95574 73.4919 2.01687C73.4691 2.07799 73.4594 2.14327 73.4636 2.2084V3.73218C76.1083 5.16496 78.3169 7.28547 79.856 9.86968C81.3952 12.4539 82.2076 15.4058 82.2076 18.4136C82.2076 21.4214 81.3952 24.3733 79.856 26.9575C78.3169 29.5417 76.1083 31.6622 73.4636 33.095V34.6208C73.4594 34.6858 73.469 34.751 73.4919 34.8121C73.5148 34.8731 73.5504 34.9286 73.5964 34.9748C73.6423 35.021 73.6976 35.057 73.7584 35.0802C73.8193 35.1035 73.8845 35.1135 73.9495 35.1097H83.1207C83.1857 35.1134 83.2508 35.1032 83.3115 35.0799C83.3723 35.0566 83.4274 35.0206 83.4733 34.9744C83.5191 34.9282 83.5546 34.8728 83.5775 34.8118C83.6003 34.7509 83.6099 34.6857 83.6057 34.6208V24.5042C83.5999 24.4643 83.6034 24.4236 83.6161 24.3853C83.6287 24.347 83.6501 24.3122 83.6785 24.2836C83.7069 24.255 83.7416 24.2334 83.7798 24.2205C83.818 24.2076 83.8587 24.2037 83.8987 24.2093H85.5985L89.8191 34.6208C89.859 34.7776 89.9552 34.9142 90.0896 35.0045C90.2239 35.0947 90.3868 35.1322 90.547 35.1097H100.691C100.756 35.1132 100.821 35.0991 100.879 35.0691C100.937 35.039 100.986 34.994 101.021 34.9387C101.055 34.8835 101.075 34.8199 101.076 34.7547C101.078 34.6895 101.063 34.625 101.031 34.5678M90.2591 13.1088C90.2591 14.8776 89.1432 15.9574 86.9594 15.9574H83.9037C83.8638 15.9632 83.8231 15.9595 83.7849 15.9467C83.7467 15.934 83.7119 15.9124 83.6835 15.8839C83.655 15.8554 83.6337 15.8206 83.621 15.7823C83.6084 15.744 83.6049 15.7034 83.6107 15.6635V10.5552C83.6046 10.5153 83.608 10.4745 83.6205 10.4362C83.6331 10.3978 83.6545 10.3629 83.683 10.3343C83.7115 10.3057 83.7463 10.2842 83.7846 10.2715C83.823 10.2588 83.8637 10.2553 83.9037 10.2613H86.9594C89.1412 10.2613 90.2591 11.3411 90.2591 13.1088Z" fill="black"/>
<path d="M0.000106961 34.6168C-0.00441269 34.6818 0.00501947 34.7471 0.0277229 34.8083C0.0504263 34.8694 0.0858878 34.9251 0.131779 34.9714C0.177669 35.0178 0.232922 35.0538 0.293843 35.0771C0.354763 35.1005 0.419959 35.1106 0.485079 35.1067H9.70526C9.77042 35.1105 9.83565 35.1005 9.89662 35.0771C9.95759 35.0538 10.0129 35.0178 10.0588 34.9714C10.1048 34.9251 10.1404 34.8695 10.1632 34.8084C10.186 34.7472 10.1956 34.6819 10.1912 34.6168V27.5958L12.762 23.9123L17.8615 34.6178C17.9238 34.7808 18.0394 34.9179 18.1895 35.0069C18.3397 35.0959 18.5155 35.1314 18.6884 35.1077H29.2655C29.3306 35.1139 29.3962 35.1007 29.4539 35.0698C29.5116 35.039 29.5589 34.9918 29.59 34.9342C29.621 34.8766 29.6344 34.8111 29.6284 34.7459C29.6224 34.6808 29.5974 34.6188 29.5565 34.5678L19.6574 15.5155L29.3635 2.35437C29.5575 2.06041 29.4635 1.71546 29.0255 1.71546H18.7294C18.5518 1.70505 18.3749 1.74587 18.2198 1.83308C18.0647 1.92029 17.9379 2.05021 17.8545 2.20739L10.1882 13.4058V2.20739C10.1927 2.14218 10.1833 2.07676 10.1605 2.01549C10.1378 1.95421 10.1022 1.89849 10.0562 1.85204C10.0103 1.80558 9.95492 1.76947 9.89387 1.74609C9.83283 1.72271 9.76749 1.71261 9.70224 1.71646H0.482089C0.416958 1.71292 0.351789 1.72324 0.290944 1.74674C0.230099 1.77024 0.174962 1.80639 0.129124 1.85279C0.0832857 1.89919 0.0477909 1.9548 0.0250376 2.01592C0.00228429 2.07705 -0.00722435 2.14231 -0.00288349 2.20739L0.000106961 34.6168Z" fill="black"/>
<path d="M57.4249 3.80523C54.8145 5.24799 52.6384 7.36389 51.123 9.93277C49.6076 12.5017 48.8084 15.4297 48.8084 18.4122C48.8084 21.3946 49.6076 24.3227 51.123 26.8915C52.6384 29.4604 54.8145 31.5763 57.4249 33.0191V34.6188C57.4293 34.684 57.4198 34.7493 57.397 34.8104C57.3741 34.8716 57.3386 34.9272 57.2926 34.9735C57.2466 35.0199 57.1913 35.0559 57.1303 35.0792C57.0694 35.1025 57.0041 35.1126 56.939 35.1088H47.7188C47.6536 35.1126 47.5884 35.1025 47.5274 35.0792C47.4665 35.0559 47.4112 35.0199 47.3652 34.9735C47.3192 34.9272 47.2837 34.8716 47.2608 34.8104C47.238 34.7493 47.2285 34.684 47.2329 34.6188V22.9765C47.2386 22.9368 47.2351 22.8963 47.2226 22.8582C47.2101 22.8202 47.1889 22.7855 47.1607 22.757C47.1324 22.7285 47.098 22.7069 47.06 22.694C47.0221 22.6811 46.9816 22.6772 46.9419 22.6825H40.1005C40.0608 22.6772 40.0203 22.6811 39.9823 22.694C39.9444 22.7069 39.9099 22.7285 39.8817 22.757C39.8535 22.7855 39.8323 22.8202 39.8198 22.8582C39.8073 22.8963 39.8037 22.9368 39.8095 22.9765V34.6148C39.8139 34.6799 39.8043 34.7451 39.7816 34.8062C39.7588 34.8673 39.7234 34.9228 39.6775 34.9691C39.6316 35.0155 39.5765 35.0515 39.5156 35.0749C39.4548 35.0983 39.3896 35.1085 39.3246 35.1048H30.1054C30.0402 35.1086 29.975 35.0985 29.914 35.0752C29.8531 35.0519 29.7978 35.0159 29.7518 34.9695C29.7058 34.9232 29.6702 34.8676 29.6474 34.8064C29.6246 34.7453 29.6151 34.68 29.6194 34.6148V2.20846C29.6151 2.14329 29.6246 2.07794 29.6474 2.01674C29.6702 1.95554 29.7058 1.89989 29.7518 1.85348C29.7977 1.80706 29.853 1.77093 29.914 1.7475C29.9749 1.72406 30.0402 1.71384 30.1054 1.71753H39.3246C39.3897 1.71399 39.4548 1.72431 39.5157 1.74782C39.5765 1.77132 39.6317 1.80746 39.6775 1.85387C39.7234 1.90027 39.7588 1.95587 39.7816 2.017C39.8043 2.07812 39.8138 2.14338 39.8095 2.20846V13.2569C39.8037 13.2966 39.8073 13.3371 39.8198 13.3751C39.8323 13.4132 39.8535 13.4479 39.8817 13.4764C39.9099 13.5049 39.9444 13.5265 39.9823 13.5394C40.0203 13.5523 40.0608 13.5562 40.1005 13.5508H46.9419C46.9816 13.5562 47.0221 13.5523 47.06 13.5394C47.098 13.5265 47.1324 13.5049 47.1607 13.4764C47.1889 13.4479 47.2101 13.4132 47.2226 13.3751C47.2351 13.3371 47.2386 13.2966 47.2329 13.2569V2.20846C47.2285 2.14329 47.2381 2.07794 47.2609 2.01674C47.2837 1.95554 47.3192 1.89989 47.3652 1.85348C47.4111 1.80706 47.4664 1.77093 47.5274 1.7475C47.5883 1.72406 47.6536 1.71384 47.7188 1.71753H56.939C57.0042 1.71384 57.0694 1.72406 57.1304 1.7475C57.1914 1.77093 57.2467 1.80706 57.2926 1.85348C57.3386 1.89989 57.3741 1.95554 57.3969 2.01674C57.4197 2.07794 57.4293 2.14329 57.4249 2.20846V3.80523Z" fill="black"/>
<path d="M99.1404 2.01367C99.1428 1.61621 99.2628 1.22836 99.4854 0.899051C99.7079 0.56974 100.023 0.313725 100.391 0.16331C100.759 0.0128946 101.163 -0.0251828 101.553 0.0538816C101.942 0.132946 102.299 0.325607 102.58 0.607562C102.86 0.889517 103.05 1.24813 103.127 1.63816C103.203 2.02818 103.163 2.43214 103.01 2.79907C102.857 3.166 102.599 3.47945 102.268 3.69989C101.937 3.92032 101.549 4.03786 101.151 4.03767C100.885 4.04205 100.62 3.99259 100.374 3.89226C100.127 3.79193 99.9028 3.64279 99.715 3.45378C99.5272 3.26478 99.3795 3.03981 99.2808 2.79235C99.1821 2.54488 99.1343 2.28003 99.1404 2.01367ZM102.806 2.01367C102.802 1.68726 102.702 1.36932 102.518 1.09982C102.334 0.83032 102.074 0.621311 101.771 0.49908C101.469 0.376848 101.136 0.346849 100.817 0.412868C100.497 0.478886 100.204 0.637972 99.9746 0.870105C99.7451 1.10224 99.5894 1.39706 99.527 1.71747C99.4646 2.03789 99.4984 2.36959 99.6241 2.67086C99.7497 2.97212 99.9617 3.22949 100.233 3.41059C100.505 3.5917 100.824 3.68845 101.15 3.68867C101.371 3.69458 101.591 3.65514 101.796 3.57281C102 3.49048 102.186 3.36698 102.341 3.20999C102.497 3.05299 102.618 2.86582 102.698 2.66004C102.778 2.45427 102.815 2.23428 102.806 2.01367ZM100.444 3.11967C100.434 3.12081 100.424 3.11968 100.415 3.11635C100.405 3.11302 100.397 3.10758 100.39 3.10045C100.383 3.09332 100.377 3.08468 100.374 3.07519C100.371 3.0657 100.37 3.05561 100.371 3.04567V0.959666C100.37 0.949693 100.371 0.939571 100.374 0.930041C100.378 0.920512 100.383 0.911823 100.39 0.90462C100.397 0.897417 100.405 0.891884 100.415 0.888431C100.424 0.884977 100.434 0.883691 100.444 0.884669H101.288C101.773 0.884669 102.056 1.12667 102.056 1.54767C102.062 1.6856 102.021 1.82143 101.941 1.93395C101.861 2.04647 101.746 2.12936 101.614 2.16967L102.066 3.04467C102.087 3.08767 102.066 3.11867 102.023 3.11867H101.723C101.702 3.11833 101.681 3.11093 101.663 3.09758C101.646 3.08422 101.634 3.06565 101.628 3.04467L101.207 2.22367H100.807C100.776 2.22367 100.766 2.23367 100.766 2.26667V3.04567C100.767 3.05566 100.766 3.06577 100.763 3.07525C100.76 3.08474 100.754 3.09335 100.747 3.10046C100.74 3.10757 100.731 3.11298 100.722 3.11631C100.712 3.11963 100.702 3.12078 100.692 3.11967H100.441H100.444ZM101.657 1.54767C101.657 1.34767 101.542 1.24167 101.288 1.24167H100.813C100.782 1.24167 100.773 1.25367 100.773 1.28467V1.82267C100.773 1.82824 100.773 1.8339 100.775 1.83925C100.777 1.8446 100.779 1.84951 100.783 1.85363C100.787 1.85774 100.792 1.86095 100.797 1.86303C100.802 1.86512 100.808 1.86602 100.813 1.86567H101.288C101.542 1.86567 101.657 1.74767 101.657 1.54767Z" fill="black"/>
</g>
<defs>
<clipPath id="clip0_962_3">
<rect width="122.77" height="35.11" fill="white"/>
</clipPath>
</defs>
</svg>
