<svg xmlns="http://www.w3.org/2000/svg" width="122.781" height="35.115" viewBox="0 0 122.781 35.115">
  <g id="Grupo_1083" data-name="Grupo 1083" transform="translate(-1623.957 -1204.911)">
    <path id="Sign_in" data-name="Sign in" d="M36.732,23.089H31.188V17.48H27.127v5.609H21.583V27.15h5.544v5.609h4.061V27.15h5.544Z" transform="translate(1710.006 1201.517)" fill="#f0f0f0"/>
    <g id="Grupo_1007" data-name="Grupo 1007" transform="translate(1623.957 1204.911)">
      <g id="Grupo_2" data-name="Grupo 2" transform="translate(0)">
        <g id="Grupo_1" data-name="Grupo 1">
          <path id="Trazado_1" data-name="Trazado 1" d="M523.88,120.213a5.514,5.514,0,1,0-5.514-5.514,5.512,5.512,0,0,0,5.514,5.514" transform="translate(-458.37 -96.283)" fill="#f0f0f0"/>
          <path id="Trazado_2" data-name="Trazado 2" d="M563.335,127.594,557.8,115.364c3.3-1.963,4.952-5.3,4.952-9.379,0-6.532-4.222-11.247-12.718-11.247H536.256a.462.462,0,0,0-.486.491v1.524a16.7,16.7,0,0,1,0,29.367v1.526a.46.46,0,0,0,.486.489h9.172a.46.46,0,0,0,.485-.489V117.528a.26.26,0,0,1,.293-.295h1.7l4.221,10.413a.657.657,0,0,0,.728.489H563a.366.366,0,0,0,.34-.542m-10.773-21.462c0,1.769-1.116,2.849-3.3,2.849h-3.056a.259.259,0,0,1-.293-.294v-5.109a.258.258,0,0,1,.293-.294h3.056c2.182,0,3.3,1.08,3.3,2.848" transform="translate(-462.3 -93.02)" fill="#f0f0f0"/>
          <path id="Trazado_3" data-name="Trazado 3" d="M440.869,127.641a.459.459,0,0,0,.485.49h9.221a.46.46,0,0,0,.486-.49v-7.022l2.571-3.684,5.1,10.707a.773.773,0,0,0,.827.49h10.578a.333.333,0,0,0,.291-.54l-9.9-19.055,9.707-13.163c.194-.294.1-.639-.338-.639H459.6a.929.929,0,0,0-.875.492l-7.667,11.2v-11.2a.46.46,0,0,0-.486-.491h-9.221a.461.461,0,0,0-.485.491Z" transform="translate(-440.869 -93.019)" fill="#f0f0f0"/>
          <path id="Trazado_4" data-name="Trazado 4" d="M506.939,96.826a16.692,16.692,0,0,0,0,29.218v1.6a.46.46,0,0,1-.486.49h-9.221a.46.46,0,0,1-.486-.49V116a.259.259,0,0,0-.291-.294h-6.842a.259.259,0,0,0-.291.294v11.64a.46.46,0,0,1-.485.49h-9.22a.46.46,0,0,1-.486-.49V95.229a.461.461,0,0,1,.486-.491h9.22a.461.461,0,0,1,.485.491v11.05a.259.259,0,0,0,.291.294h6.842a.259.259,0,0,0,.291-.294V95.229a.461.461,0,0,1,.486-.491h9.221a.461.461,0,0,1,.486.491Z" transform="translate(-449.509 -93.02)" fill="#f0f0f0"/>
          <path id="Trazado_5" data-name="Trazado 5" d="M568.939,94.533a2.012,2.012,0,1,1,2.011,2.024,1.979,1.979,0,0,1-2.011-2.024m3.666,0a1.655,1.655,0,1,0-1.656,1.675,1.614,1.614,0,0,0,1.656-1.675m-2.362,1.106a.066.066,0,0,1-.073-.074V93.479a.067.067,0,0,1,.073-.075h.844c.485,0,.768.242.768.663a.625.625,0,0,1-.442.622l.452.875c.021.043,0,.074-.043.074h-.3a.1.1,0,0,1-.095-.074l-.421-.821h-.4c-.031,0-.041.01-.041.043v.779a.067.067,0,0,1-.074.074h-.251Zm1.213-1.572c0-.2-.115-.306-.369-.306h-.475c-.031,0-.04.012-.04.043v.538a.038.038,0,0,0,.04.043h.475c.254,0,.369-.117.369-.317" transform="translate(-469.79 -92.519)" fill="#f0f0f0"/>
        </g>
      </g>
    </g>
  </g>
</svg>
