<svg id="Capa_1" data-name="Capa 1" xmlns="http://www.w3.org/2000/svg" viewBox="0 0 32 32"><defs><style>.cls-1{fill:#1257a6;}.cls-2{fill:#fff;}</style></defs><circle class="cls-1" cx="16" cy="16" r="16"/><path class="cls-2" d="M26.53,13.58c-.37.08-.39.07-.48-.26a3.25,3.25,0,0,0-.11-.42c-.05-.16,0-.35-.28-.38a.69.69,0,0,0-.69.21.82.82,0,0,0-.16.34,6.82,6.82,0,0,0,0,1.28c0,.15.09.17.21.17h.85c.09,0,.26-.06.23.13s0,.36-.24.36H25c-.18,0-.24.06-.24.23,0,1.11,0,2.21,0,3.31,0,.18.08.24.24.27a4.59,4.59,0,0,1,.51.1c.11,0,.14.09.14.2s-.1.11-.18.11H23.2c-.08,0-.18,0-.18-.11a.18.18,0,0,1,.15-.22c.53-.17.53-.18.53-.74,0-1,0-1.92,0-2.87,0-.21-.05-.29-.27-.28H21.71c-.2,0-.28,0-.28.25,0,1.09,0,2.17,0,3.25,0,.2,0,.29.25.31a4.1,4.1,0,0,1,.48.1c.12,0,.14.1.13.2s-.09.11-.17.11H19.89c-.08,0-.18,0-.19-.1a.19.19,0,0,1,.14-.23c.55-.2.54-.2.54-.79,0-.94,0-1.88,0-2.81,0-.24-.08-.32-.3-.29h-.24c-.1,0-.19,0-.2-.13a.19.19,0,0,1,.17-.23c.57-.16.57-.16.56-.75a2.46,2.46,0,0,1,.23-1.28,1.42,1.42,0,0,1,1.83-.56.48.48,0,0,0,.45,0c.17-.08.29,0,.29.2,0,.39,0,.78-.06,1.17,0,.11-.05.16-.15.14s-.25.07-.29-.12-.1-.38-.17-.57,0-.36-.27-.38a.61.61,0,0,0-.64.27.84.84,0,0,0-.14.41c0,.38,0,.76,0,1.14,0,.15.06.19.2.19H23.5c.15,0,.2-.07.2-.21a7.23,7.23,0,0,1,0-1A1.48,1.48,0,0,1,25.78,12c.2.07.37.19.58,0,.05-.05.11,0,.17,0s.08.13.08.21C26.6,12.73,26.56,13.15,26.53,13.58Z"/><path class="cls-2" d="M9.82,13.57v.65c0,.11,0,.25-.16.23s-.36.11-.43-.15-.17-.54-.25-.81a.45.45,0,0,0-.31-.34,2.24,2.24,0,0,0-1.67,0,.92.92,0,0,0-.26,1.61,4,4,0,0,0,1.39.66A4.51,4.51,0,0,1,9.39,16a1.76,1.76,0,0,1,.72,1.89,1.69,1.69,0,0,1-1.5,1.32A3.85,3.85,0,0,1,6.13,19a.42.42,0,0,0-.36,0c-.26.1-.39,0-.38-.26s0-.83.05-1.25c0-.12,0-.26.17-.24s.35-.09.42.16.18.56.26.84a.33.33,0,0,0,.18.22,2.54,2.54,0,0,0,2.14.06A.94.94,0,0,0,8.88,17a2.81,2.81,0,0,0-1.14-.61,5.34,5.34,0,0,1-1.62-.76,1.71,1.71,0,0,1-.67-1.79,1.62,1.62,0,0,1,1.4-1.31,3.33,3.33,0,0,1,2.28.22.43.43,0,0,0,.37,0c.23-.1.36,0,.36.25v.63Z"/><path class="cls-2" d="M11.49,16.67c0-.45,0-.9,0-1.34,0-.24-.05-.37-.31-.32h-.25c-.11,0-.19,0-.19-.16s0-.2.16-.21h0c.58,0,.72-.32.79-.78a.61.61,0,0,1,.71-.56c.14,0,.11.09.11.16a6.59,6.59,0,0,1,0,.77c0,.25.08.31.31.29a7.48,7.48,0,0,1,.82,0c.09,0,.27-.07.24.11s0,.39-.27.38h-.87c-.18,0-.23.05-.23.23,0,.88,0,1.77,0,2.65,0,.71.45,1,1.11.71.12-.05.26-.28.41,0s-.1.29-.21.38a1.61,1.61,0,0,1-1.62.27,1.14,1.14,0,0,1-.74-1.11c0-.48,0-1,0-1.44Z"/><path class="cls-2" d="M15.27,14.56a.45.45,0,0,0,.46,0,2.84,2.84,0,0,1,1.8,0,1.19,1.19,0,0,1,.9,1.19c0,.82,0,1.64,0,2.46a2.71,2.71,0,0,0,0,.29c.05.29.23.39.49.27s.2-.07.27,0,0,.18-.1.24a1.09,1.09,0,0,1-1.6-.18c-.13-.17-.18.05-.28.05a1.9,1.9,0,0,1-1.54.36,1.19,1.19,0,0,1-1.06-1.22,1.27,1.27,0,0,1,.93-1.29l.26-.08A6.37,6.37,0,0,1,17,16.53c.47,0,.41,0,.43-.43,0-.83-.18-1.09-1.16-1.05-.5,0-.59.35-.69.71a.36.36,0,0,1-.55.16c0-.35-.05-.71-.08-1.07a.28.28,0,0,1,.13-.3A.2.2,0,0,1,15.27,14.56Zm2.12,2.55c0-.09,0-.19-.12-.16a3.45,3.45,0,0,0-1.19.23.81.81,0,0,0-.42.78.68.68,0,0,0,.36.65,1.19,1.19,0,0,0,1.05-.1.59.59,0,0,0,.33-.69,1.28,1.28,0,0,1,0-.19Z"/></svg>