<svg id="Grupo_1042" data-name="Grupo 1042" xmlns="http://www.w3.org/2000/svg" xmlns:xlink="http://www.w3.org/1999/xlink" width="26.288" height="26.988" viewBox="0 0 26.288 26.988">
  <defs>
    <clipPath id="clip-path">
      <rect id="Rectángulo_164" data-name="Rectángulo 164" width="26.288" height="26.988" fill="#a4a3aa"/>
    </clipPath>
  </defs>
  <g id="Grupo_1041" data-name="Grupo 1041" clip-path="url(#clip-path)">
    <path id="Trazado_1070" data-name="Trazado 1070" d="M148.8,11.7a5.849,5.849,0,1,1,5.849-5.849A5.856,5.856,0,0,1,148.8,11.7m0-10.462a4.613,4.613,0,1,0,4.613,4.613A4.618,4.618,0,0,0,148.8,1.236" transform="translate(-128.365)" fill="#a4a3aa"/>
    <path id="Trazado_1071" data-name="Trazado 1071" d="M183.348,26.237a2.16,2.16,0,0,1-1.2.579l0,.9-.965,0,0-.869a3.782,3.782,0,0,1-.978-.2,2.756,2.756,0,0,1-.786-.415l.4-.894a2.938,2.938,0,0,0,1.715.549,1.315,1.315,0,0,0,.751-.183.586.586,0,0,0,.26-.512.422.422,0,0,0-.146-.329,1.074,1.074,0,0,0-.367-.2q-.222-.076-.632-.179a6.743,6.743,0,0,1-.982-.3,1.707,1.707,0,0,1-.665-.492,1.346,1.346,0,0,1-.281-.888,1.509,1.509,0,0,1,.459-1.107,2.184,2.184,0,0,1,1.208-.6l0-.9.965,0,0,.877a3.971,3.971,0,0,1,.877.218,2.1,2.1,0,0,1,.669.388l-.4.894a2.751,2.751,0,0,0-1.578-.55,1.182,1.182,0,0,0-.7.187.6.6,0,0,0-.26.516.487.487,0,0,0,.154.369,1.048,1.048,0,0,0,.387.224q.233.08.652.183a7.408,7.408,0,0,1,.958.294,1.635,1.635,0,0,1,.649.472,1.31,1.31,0,0,1,.272.868,1.492,1.492,0,0,1-.443,1.1" transform="translate(-161.108 -18.136)" fill="#a4a3aa"/>
    <path id="Trazado_1072" data-name="Trazado 1072" d="M20.086,25.334V38.658a1.361,1.361,0,0,1-1.359,1.359H2.584a1.361,1.361,0,0,1-1.359-1.359v-20.2A1.361,1.361,0,0,1,2.584,17.1H16.607V15.874H2.584A2.587,2.587,0,0,0,0,18.458v20.2a2.587,2.587,0,0,0,2.584,2.584H18.726a2.587,2.587,0,0,0,2.584-2.584V25.334Z" transform="translate(0 -14.254)" fill="#a4a3aa"/>
  </g>
</svg>
