<svg xmlns="http://www.w3.org/2000/svg" width="14.995" height="14.995" viewBox="0 0 14.995 14.995">
  <g id="Grupo_1019" data-name="Grupo 1019" transform="translate(41.172 -9.824)">
    <g id="Grupo_1" data-name="Grupo 1" transform="translate(-41.172 9.824)">
      <path id="Trazado_7" data-name="Trazado 7" d="M-28.373,19.517a7.469,7.469,0,0,0-2.849-1.787,4.333,4.333,0,0,0,1.882-3.572,4.339,4.339,0,0,0-4.334-4.334,4.339,4.339,0,0,0-4.334,4.334,4.333,4.333,0,0,0,1.882,3.572,7.469,7.469,0,0,0-2.849,1.787,7.448,7.448,0,0,0-2.2,5.3H-40a6.333,6.333,0,0,1,6.326-6.326,6.333,6.333,0,0,1,6.326,6.326h1.171A7.449,7.449,0,0,0-28.373,19.517Zm-5.3-2.2a3.167,3.167,0,0,1-3.163-3.163A3.167,3.167,0,0,1-33.675,11a3.167,3.167,0,0,1,3.163,3.163A3.167,3.167,0,0,1-33.675,17.321Z" transform="translate(41.172 -9.824)" fill="#a4a3aa"/>
    </g>
  </g>
</svg>
