<svg xmlns="http://www.w3.org/2000/svg" xmlns:xlink="http://www.w3.org/1999/xlink" viewBox="0 0 661.74 697.57"><defs><style>.cls-1{fill:none;}.cls-2{fill:#1257a6;}.cls-3{fill:#191919;}.cls-4{fill:#d7e9ff;}.cls-5{fill:#f5f7f9;}.cls-6{clip-path:url(#clip-path);}.cls-7{fill:#0089e5;}.cls-8{fill:#fff;}.cls-9{fill:#b9d3ed;}</style><clipPath id="clip-path"><circle class="cls-1" cx="323.37" cy="269.58" r="182.42"/></clipPath></defs><g id="Capa_2" data-name="Capa 2"><g id="Capa_1-2" data-name="Capa 1"><path d="M39.23,643H10.77v15.24h22v10.21h-22v28.2H0V632.79H39.23Z"/><path d="M40.05,674a26.66,26.66,0,0,1,1.6-9.26,21.07,21.07,0,0,1,11.77-12.46,23.79,23.79,0,0,1,9.44-1.82,23.45,23.45,0,0,1,9.4,1.82,21.09,21.09,0,0,1,7.16,5A22.87,22.87,0,0,1,84,664.81,25.66,25.66,0,0,1,85.67,674a26.25,26.25,0,0,1-1.59,9.21,22.39,22.39,0,0,1-4.57,7.49,20.9,20.9,0,0,1-7.2,5,23.63,23.63,0,0,1-9.45,1.83,23.44,23.44,0,0,1-9.48-1.83,21.39,21.39,0,0,1-7.17-5,21.66,21.66,0,0,1-4.56-7.43A26.57,26.57,0,0,1,40.05,674Zm10.59,0q0,6.82,3.24,10.83a10.9,10.9,0,0,0,9,4,10.91,10.91,0,0,0,9-4q3.24-4,3.24-10.83c0-4.54-1.08-8.14-3.24-10.77a11,11,0,0,0-9-4,11,11,0,0,0-9,4C51.72,665.84,50.64,669.44,50.64,674Z"/><path d="M119.07,650.31l-2,10.12h-3.83a10.31,10.31,0,0,0-5.25,1.46,9.28,9.28,0,0,0-3.6,3.47v31.3H93.79V651.31h9.4l.55,5.66q6-6.66,13.05-6.66Z"/><path d="M146.62,697.57a17.47,17.47,0,0,1-12-4.47l-.37,3.56h-9.58V628.23h10.31v26.18q4.47-3.92,11.68-3.92a21.48,21.48,0,0,1,8.94,1.82,20.4,20.4,0,0,1,6.84,5,22.15,22.15,0,0,1,4.38,7.48,27.11,27.11,0,0,1,1.55,9.26,27.67,27.67,0,0,1-1.5,9.21,22.19,22.19,0,0,1-4.34,7.49,20,20,0,0,1-6.84,5A21.55,21.55,0,0,1,146.62,697.57Zm-.82-38.32a9.87,9.87,0,0,0-8.3,3.91q-3,3.92-3,10.82,0,7.1,3,11a9.94,9.94,0,0,0,8.3,3.86,10.48,10.48,0,0,0,8.71-4.14q3.24-4.14,3.24-10.69t-3.19-10.64A10.5,10.5,0,0,0,145.8,659.25Z"/><path d="M187,643.46H176.54V632.79H187Zm0,53.2H176.54V651.31H187Z"/><path d="M238.86,696.66h-9.67l-.37-3.56a17.36,17.36,0,0,1-11.95,4.47,21.52,21.52,0,0,1-9-1.83,20,20,0,0,1-6.84-5,22.36,22.36,0,0,1-4.34-7.49,27.67,27.67,0,0,1-1.5-9.21,27.11,27.11,0,0,1,1.55-9.26,22.15,22.15,0,0,1,4.38-7.48,20.4,20.4,0,0,1,6.84-5,21.48,21.48,0,0,1,8.94-1.82q7.13,0,11.59,3.92V628.23h10.4ZM217.6,659.25a10.46,10.46,0,0,0-8.67,4c-2.13,2.69-3.19,6.26-3.19,10.68s1.06,7.93,3.19,10.69a11.11,11.11,0,0,0,17.11.23q3.15-3.92,3.15-10.82T226,663.25A10.18,10.18,0,0,0,217.6,659.25Z"/><path d="M290.77,696.66H281.1l-.36-3.56a17.38,17.38,0,0,1-12,4.47,21.55,21.55,0,0,1-9-1.83,20,20,0,0,1-6.84-5,22.36,22.36,0,0,1-4.34-7.49,27.67,27.67,0,0,1-1.5-9.21,27.35,27.35,0,0,1,1.55-9.26,22.15,22.15,0,0,1,4.38-7.48,20.5,20.5,0,0,1,6.84-5,21.48,21.48,0,0,1,8.94-1.82q7.13,0,11.59,3.92V628.23h10.4Zm-21.26-37.41a10.42,10.42,0,0,0-8.66,4c-2.13,2.69-3.2,6.26-3.2,10.68s1.07,7.93,3.2,10.69a11.1,11.1,0,0,0,17.1.23q3.15-3.92,3.15-10.82T278,663.25A10.17,10.17,0,0,0,269.51,659.25Z"/><path d="M340,675.67H309.57q.9,6.8,5,10a15.17,15.17,0,0,0,9.62,3.17,30.73,30.73,0,0,0,13.69-3.28l.73,8.57a34.17,34.17,0,0,1-15.15,3.47,28.38,28.38,0,0,1-10.4-1.78,21.82,21.82,0,0,1-7.71-5,21.51,21.51,0,0,1-4.79-7.48,26.22,26.22,0,0,1-1.64-9.4,27.06,27.06,0,0,1,1.51-9.17,21.86,21.86,0,0,1,4.38-7.44,20.66,20.66,0,0,1,6.88-5,22,22,0,0,1,9.13-1.82,21.45,21.45,0,0,1,7.89,1.41,18.9,18.9,0,0,1,6.25,4,18.29,18.29,0,0,1,4.15,6.16,20.56,20.56,0,0,1,1.51,8c0,.73,0,1.57-.14,2.51A29,29,0,0,1,340,675.67Zm-19-16.42q-8.94,0-11,9.4h20a10.31,10.31,0,0,0-2.19-6.66Q325.62,659.24,321,659.25Z"/><path d="M388.85,696.66H378.54V672.11q0-6.66-2.33-9.76t-7.52-3.1q-6.39,0-9.77,4.47v32.94h-10.3V651.31h9.3l.37,3.38a18.09,18.09,0,0,1,11.49-4.2q19.07,0,19.07,21.62Z"/><path d="M458.28,689.08l-1,8.49h-3.1q-7.67,0-10.59-5.66-4.92,5.65-13.87,5.66a14.7,14.7,0,0,1-5.38-1,12.07,12.07,0,0,1-4.24-2.74,12.28,12.28,0,0,1-2.78-4.29,14.68,14.68,0,0,1-1-5.51,11.23,11.23,0,0,1,2.69-7.71,20.42,20.42,0,0,1,6.62-4.93,32.1,32.1,0,0,1,8.44-2.65,58.18,58.18,0,0,1,8.25-.86c-.06-3.11-.76-5.28-2.09-6.53s-3.56-1.87-6.66-1.87q-5.58,0-12.23,3.65l-1.09-8.39a33.24,33.24,0,0,1,16.14-4.29q8.22,0,12.28,4.52t4.06,14.82v11.32c0,1.7,0,3.07.13,4.1a6.36,6.36,0,0,0,.6,2.42,2.18,2.18,0,0,0,1.32,1.14,8.08,8.08,0,0,0,2.33.27Zm-16-3.65V674.94a26.62,26.62,0,0,0-11,2.42q-4.2,2.14-4.2,6.25,0,5.92,6.38,5.93a11.51,11.51,0,0,0,4.66-1.1A12.25,12.25,0,0,0,442.31,685.43Z"/><path d="M484.19,697.57a22.83,22.83,0,0,1-9.39-1.83,20.16,20.16,0,0,1-6.94-5,21.77,21.77,0,0,1-4.33-7.43A27.76,27.76,0,0,1,462,674a28.12,28.12,0,0,1,1.51-9.35,21.63,21.63,0,0,1,4.33-7.48,19.8,19.8,0,0,1,6.94-4.93,23.33,23.33,0,0,1,9.39-1.78q8.4,0,13.69,3.19l-1.1,8.94a22.26,22.26,0,0,0-11.67-3.37q-6,0-9.27,4c-2.15,2.63-3.23,6.23-3.23,10.77s1.08,8.16,3.23,10.83,5.25,4,9.27,4a23.25,23.25,0,0,0,11.77-3.28l1,8.66Q492.77,697.57,484.19,697.57Z"/><path d="M524.79,697.57a22.83,22.83,0,0,1-9.39-1.83,20.16,20.16,0,0,1-6.94-5,21.77,21.77,0,0,1-4.33-7.43,28,28,0,0,1-1.51-9.31,28.38,28.38,0,0,1,1.51-9.35,21.63,21.63,0,0,1,4.33-7.48,19.8,19.8,0,0,1,6.94-4.93,23.33,23.33,0,0,1,9.39-1.78q8.4,0,13.69,3.19l-1.09,8.94a22.32,22.32,0,0,0-11.68-3.37q-6,0-9.26,4c-2.16,2.63-3.24,6.23-3.24,10.77s1.08,8.16,3.24,10.83,5.24,4,9.26,4a23.22,23.22,0,0,0,11.77-3.28l1,8.66Q533.37,697.57,524.79,697.57Z"/><path d="M584.19,675.67H553.81q.91,6.8,5,10a15.22,15.22,0,0,0,9.63,3.17,30.72,30.72,0,0,0,13.68-3.28l.73,8.57a34.13,34.13,0,0,1-15.14,3.47,28.34,28.34,0,0,1-10.4-1.78,21.73,21.73,0,0,1-7.71-5,21.37,21.37,0,0,1-4.79-7.48,26,26,0,0,1-1.65-9.4,27.31,27.31,0,0,1,1.51-9.17,21.86,21.86,0,0,1,4.38-7.44,20.6,20.6,0,0,1,6.89-5,21.87,21.87,0,0,1,9.12-1.82,21.45,21.45,0,0,1,7.89,1.41,18.8,18.8,0,0,1,6.25,4,18.14,18.14,0,0,1,4.15,6.16,20.38,20.38,0,0,1,1.51,8c0,.73-.05,1.57-.14,2.51A29,29,0,0,1,584.19,675.67Zm-19-16.42q-8.94,0-10.94,9.4h20a10.31,10.31,0,0,0-2.19-6.66Q569.87,659.24,565.21,659.25Z"/><path d="M605.72,697.57q-10.12,0-15.42-3.56l1-9.12a19.58,19.58,0,0,0,2.69,1.64,25.65,25.65,0,0,0,3.47,1.46,30.78,30.78,0,0,0,3.92,1,20.51,20.51,0,0,0,4,.41q3.92,0,5.75-1.46a4.59,4.59,0,0,0,1.82-3.74,4.38,4.38,0,0,0-2-3.65,20.59,20.59,0,0,0-4.75-2.56q-2.78-1.1-5.79-2a24.7,24.7,0,0,1-5-2.14q-4.47-2.65-4.47-9.13a15.26,15.26,0,0,1,1-5.33,12,12,0,0,1,3-4.57,15.23,15.23,0,0,1,5.2-3.14,21.4,21.4,0,0,1,7.53-1.19q8.29,0,13.68,3.28l-1,9a17.46,17.46,0,0,0-12-4.57,11.34,11.34,0,0,0-5.7,1.28,4.28,4.28,0,0,0-2.24,4,4.57,4.57,0,0,0,.87,2.92,6.84,6.84,0,0,0,2.32,1.82,16,16,0,0,0,3.33,1.19c1.25.3,2.54.63,3.88,1q12.59,3.2,12.59,13.78a16.81,16.81,0,0,1-.64,4.51,10.11,10.11,0,0,1-2.55,4.34,13.94,13.94,0,0,1-5.39,3.28A26.62,26.62,0,0,1,605.72,697.57Z"/><path d="M644.13,697.57q-10.12,0-15.42-3.56l1-9.12a19.58,19.58,0,0,0,2.69,1.64,25.65,25.65,0,0,0,3.47,1.46,30.78,30.78,0,0,0,3.92,1,20.51,20.51,0,0,0,4,.41q3.91,0,5.75-1.46a4.59,4.59,0,0,0,1.82-3.74,4.38,4.38,0,0,0-2-3.65,20.59,20.59,0,0,0-4.75-2.56q-2.77-1.1-5.79-2a24.7,24.7,0,0,1-5-2.14q-4.47-2.65-4.47-9.13a15.26,15.26,0,0,1,1-5.33,12,12,0,0,1,3-4.57,15.23,15.23,0,0,1,5.2-3.14,21.4,21.4,0,0,1,7.53-1.19q8.3,0,13.68,3.28l-1,9a17.46,17.46,0,0,0-12-4.57,11.37,11.37,0,0,0-5.7,1.28,4.28,4.28,0,0,0-2.24,4,4.57,4.57,0,0,0,.87,2.92,6.84,6.84,0,0,0,2.32,1.82,16.24,16.24,0,0,0,3.33,1.19c1.25.3,2.54.63,3.88,1q12.58,3.2,12.59,13.78a16.81,16.81,0,0,1-.64,4.51,10.11,10.11,0,0,1-2.55,4.34,14,14,0,0,1-5.38,3.28A26.72,26.72,0,0,1,644.13,697.57Z"/><path class="cls-2" d="M257,573.36H243.56v30h-19v-30H177l50.89-80.6h15.65v65.12H257Zm-32.4-15.48V522.47l-21.33,35.41Z"/><path class="cls-2" d="M321.15,605.6a42.35,42.35,0,0,1-18.64-4,41.74,41.74,0,0,1-14.39-11.38,52.47,52.47,0,0,1-9.24-17.62,75.4,75.4,0,0,1-3.24-22.76A74.46,74.46,0,0,1,279.27,526a59.62,59.62,0,0,1,10-18.73,46.78,46.78,0,0,1,15-12.33,40.51,40.51,0,0,1,18.73-4.42,39.23,39.23,0,0,1,18.25,4.27,44.64,44.64,0,0,1,14.39,11.77,55.85,55.85,0,0,1,9.48,17.86,72.51,72.51,0,0,1,3.4,22.68,78.44,78.44,0,0,1-3.4,23.7,57,57,0,0,1-9.56,18.5,42.91,42.91,0,0,1-14.94,12A44.05,44.05,0,0,1,321.15,605.6Zm1.58-98.46a22.54,22.54,0,0,0-10.82,2.77,26.38,26.38,0,0,0-9,8.22,42.6,42.6,0,0,0-6.08,13.43,68.28,68.28,0,0,0-2.22,18.25q0,19.61,7.27,29.32a23.22,23.22,0,0,0,19.6,9.72,24.55,24.55,0,0,0,20.7-10.35q7.74-10.35,7.75-31.37a61.87,61.87,0,0,0-2.14-17A40.4,40.4,0,0,0,342,517.57a25.59,25.59,0,0,0-8.62-7.74A22.13,22.13,0,0,0,322.73,507.14Z"/><path class="cls-2" d="M413.92,605.6a52.87,52.87,0,0,1-9.4-.87,86.09,86.09,0,0,1-9.09-2.13,47.26,47.26,0,0,1-7.35-2.77,11.66,11.66,0,0,1-4-2.76L388.62,580a39.88,39.88,0,0,0,24.58,7.9q9.45,0,15.76-4.17t6.3-13.93a27.62,27.62,0,0,0-1.1-8,14.56,14.56,0,0,0-3.62-6.14,16.29,16.29,0,0,0-6.77-3.85,35.29,35.29,0,0,0-10.54-1.34H399.86l1.75-14.54h6.82q22.88,0,22.88-15.65,0-13.75-17.14-13.75-13.32,0-20.15,5.69l-3-14.38a15.55,15.55,0,0,1,3.87-2.69,36.29,36.29,0,0,1,5.77-2.29,53.08,53.08,0,0,1,7.27-1.66,52.08,52.08,0,0,1,8.22-.63q10.11,0,16.75,2.69a28.34,28.34,0,0,1,10.51,6.95,23.91,23.91,0,0,1,5.37,9.4,35.75,35.75,0,0,1,1.5,10q0,14.07-11.69,22.44,15.65,7.9,15.64,27.18A35.56,35.56,0,0,1,451,584.74a32.92,32.92,0,0,1-8.77,11.38,39.56,39.56,0,0,1-12.8,7A48,48,0,0,1,413.92,605.6Z"/><circle class="cls-3" cx="323.62" cy="267.83" r="183.65"/><path d="M302.32,17.72h5.6A9.33,9.33,0,0,1,317.24,27v37a0,0,0,0,1,0,0H302.32a0,0,0,0,1,0,0V17.72A0,0,0,0,1,302.32,17.72Z" transform="translate(619.56 81.8) rotate(180)"/><path class="cls-4" d="M307.41,17.58h52.83a0,0,0,0,1,0,0V55.17a23.37,23.37,0,0,1-23.37,23.37H320.49a13.08,13.08,0,0,1-13.08-13.08V17.58A0,0,0,0,1,307.41,17.58Z"/><path class="cls-2" d="M205.53,409.28h235l-29.5-266.71a33.81,33.81,0,0,0-33.6-30.08H268.63A33.8,33.8,0,0,0,235,142.57L222,260.89Z"/><polygon class="cls-5" points="348.42 111.49 344.95 177.86 305.31 111.49 348.42 111.49"/><polygon class="cls-4" points="318.21 64.07 342.93 58.42 348.42 111.49 335.89 116.18 305.31 111.49 318.21 64.07"/><path d="M336.09,15.79A15.79,15.79,0,1,0,351.88,0,15.79,15.79,0,0,0,336.09,15.79Z"/><path d="M302.32,7.06h48.23a0,0,0,0,1,0,0V19.19a12.39,12.39,0,0,1-12.39,12.39H302.32a0,0,0,0,1,0,0V7.06A0,0,0,0,1,302.32,7.06Z" transform="translate(652.87 38.64) rotate(180)"/><path class="cls-4" d="M304.72,50.76a5.06,5.06,0,1,0,5.06-5.06A5.05,5.05,0,0,0,304.72,50.76Z"/><g class="cls-6"><rect class="cls-7" x="206.1" y="409.65" width="234.54" height="46.69"/></g><path class="cls-2" d="M422.72,347.72l94.2-76.18a27.24,27.24,0,0,0-.12-39.18L400.09,120.25l-30.22,31.46L475.62,253.29l-60.82,77Z"/><circle class="cls-8" cx="334.38" cy="259.5" r="106.5"/><path class="cls-2" d="M262.31,344.55l7.92-17.44-65.32-78.79,81.24-104.14-44-19.9L160.54,233.37a27.24,27.24,0,0,0,5.83,38.39Z"/><path class="cls-9" d="M262.31,344.55l17.61,8.39a18.28,18.28,0,0,0,14.62.51l14.81-5.87a1,1,0,0,0-.19-2l-18.93-3.51a5.32,5.32,0,0,1-4.14-3.72,13.53,13.53,0,0,0-8.9-9.06l-7-2.21Z"/><path class="cls-9" d="M422.72,347.72l-17.61,8.38a18.24,18.24,0,0,1-14.62.51l-14.82-5.87a1,1,0,0,1,.2-2l18.93-3.5a5.35,5.35,0,0,0,4.14-3.73,13.55,13.55,0,0,1,8.9-9.06l7-2.2Z"/><polyline class="cls-7" points="304.91 241.15 286.05 241.15 286.05 322.86 386.62 322.86 386.62 241.15 367.76 241.15"/><path class="cls-7" d="M372.34,241.14h-9.15V216a26.86,26.86,0,0,0-53.71,0v25.14h-9.15V216a36,36,0,0,1,72,0Z"/><line class="cls-7" x1="336.33" y1="266.29" x2="336.33" y2="297.72"/><rect class="cls-8" x="331" y="266.29" width="10.67" height="31.43"/></g></g></svg>