<svg id="Grupo_1036" data-name="Grupo 1036" xmlns="http://www.w3.org/2000/svg" xmlns:xlink="http://www.w3.org/1999/xlink" width="24.119" height="24.165" viewBox="0 0 24.119 24.165">
  <defs>
    <clipPath id="clip-path">
      <rect id="Rectángulo_161" data-name="Rectángulo 161" width="24.119" height="24.165" fill="#a4a3aa"/>
    </clipPath>
  </defs>
  <g id="Grupo_1035" data-name="Grupo 1035" clip-path="url(#clip-path)">
    <path id="Trazado_1060" data-name="Trazado 1060" d="M18.8,0a1.438,1.438,0,0,1,.95.672,1.917,1.917,0,0,1,.218.78c.019,1.667.011,3.335.009,5,0,.342-.19.563-.47.563s-.47-.221-.47-.563q0-2.43,0-4.86c0-.5-.153-.649-.648-.649H1.594c-.5,0-.65.153-.65.647q0,10.487,0,20.975c0,.5.153.655.642.655H18.4c.476,0,.632-.159.632-.641,0-1.07,0-2.139,0-3.209,0-.354.2-.58.489-.566s.449.223.451.557c0,.7,0,1.4,0,2.1,0,.393,0,.786,0,1.18a1.411,1.411,0,0,1-1.1,1.482.53.53,0,0,0-.082.041H1.179C.213,23.768,0,23.448,0,22.381V18.063Q0,9.829,0,1.595A1.657,1.657,0,0,1,.3.552,1.718,1.718,0,0,1,1.179,0Z" transform="translate(0)" fill="#a4a3aa"/>
    <path id="Trazado_1061" data-name="Trazado 1061" d="M247.905,102.05a15.86,15.86,0,0,1-1.518,2.856c-1.508,2.655-3.041,5.3-4.572,7.938a1.556,1.556,0,0,1-.4.45q-1.363,1.028-2.747,2.027a.838.838,0,0,1-.469.162c-.251,0-.405-.237-.379-.528.047-.532.111-1.063.169-1.594.07-.64.135-1.281.219-1.92a1.472,1.472,0,0,1,.165-.531q2.883-5.025,5.78-10.041a1.966,1.966,0,0,1,2.655-.879,1.921,1.921,0,0,1,1.048,1.346c.012.051.033.1.05.15Zm-8.568,9.061,1.8,1.038,4.755-8.253-1.793-1.039-4.758,8.254m7.028-8.031c.181-.328.366-.62.509-.932a1.026,1.026,0,0,0-1.72-1.074,11.156,11.156,0,0,0-.6.961l1.807,1.045m-5.921,9.763-1.362-.787-.218,1.954,1.579-1.166" transform="translate(-223.786 -93.885)" fill="#a4a3aa"/>
  </g>
</svg>
