<svg id="Capa_1" data-name="Capa 1" xmlns="http://www.w3.org/2000/svg" viewBox="0 0 97.39 97.39"><defs><style>.cls-1{fill:#0977f8;}.cls-2{fill:#fff;}</style></defs><circle id="Elipse_55" data-name="Elipse 55" class="cls-1" cx="48.7" cy="48.7" r="48.7"/><path id="Icon" class="cls-2" d="M79.79,40.84a4.37,4.37,0,0,0-.14-.79,5.25,5.25,0,0,0-2.26-3.29h0a6,6,0,0,0-3-.82H61.69c0-.06,0-.11,0-.14.1-.57.19-1.14.28-1.7.17-1.1.35-2.23.56-3.34a13.41,13.41,0,0,0-.27-6.83c-.61-1.86-1.31-3.76-2.15-5.86a4.71,4.71,0,0,0-1.22-1.86h0a6.9,6.9,0,0,0-7.65-.43,3.92,3.92,0,0,0-2,3.71c0,1,.06,2,.07,3s0,2.2.08,3.29A3.57,3.57,0,0,1,49,27.59h0a84.7,84.7,0,0,1-6.43,10.8,17,17,0,0,1-1.72,2,.29.29,0,0,1-.16,0h-.11a9.35,9.35,0,0,0-1.3-.26H25.78a3.24,3.24,0,0,0-3,3.45V69a3.13,3.13,0,0,0,3.07,2.89H37.69a2.92,2.92,0,0,0,2.67-2.66c0-.25.07-.52.08-.8a1,1,0,0,1,.53.23h0a7.51,7.51,0,0,0,4.22,1.4H67.67a17.89,17.89,0,0,0,3.27-.36,6,6,0,0,0,3.33-1.82,7.25,7.25,0,0,0,1.67-7h0a1.15,1.15,0,0,1,.21-1v0A6.67,6.67,0,0,0,77,53.41h0a.24.24,0,0,1,0-.29l0,0,0,0a6.83,6.83,0,0,0,1.09-6.8.43.43,0,0,1,.08-.29v0c.16-.31.33-.63.5-.91s.43-.77.62-1.16h0v0a5,5,0,0,0,.29-1.22c0-.19.09-.77.09-.77v-.36S79.79,41,79.79,40.84ZM26.18,43.63v0H36.39V68.39H26.22s0,0,0,0V43.63Zm47.53,1.65a.83.83,0,0,0-.57.34.88.88,0,0,0-.18.66v.08a1,1,0,0,0,.58.61,2.34,2.34,0,0,1,1.53,1.44,2.94,2.94,0,0,1-.49,2.48,3.41,3.41,0,0,1-2.11,1.54h-.06l-.07,0a2.21,2.21,0,0,0-.68.68l-.27.41.45.21a9.48,9.48,0,0,1,1.32.74A2.2,2.2,0,0,1,73.81,57h0v0a3.67,3.67,0,0,1-2.6,2.57h-.06l-.06,0a1.59,1.59,0,0,0-.55.6l-.18.36.34.21a7.36,7.36,0,0,1,1.34,1,2.55,2.55,0,0,1-.19,3,3.61,3.61,0,0,1-2.59,1.53,8.65,8.65,0,0,1-1.25.08H45.6a5,5,0,0,1-2.85-.89,5.53,5.53,0,0,0-1.18-.73h0a9.66,9.66,0,0,0-1.85-.39h-.1V45.59a.46.46,0,0,1,.17-.28c.88-.62,1.81-1.25,2.61-1.79h0a12.46,12.46,0,0,0,3.45-4C47.56,36.75,49.29,33.84,51,31l.49-.82a12.06,12.06,0,0,0,.94-2,5.1,5.1,0,0,0,.29-1.77c0-2.31,0-4.66-.12-7v0a.72.72,0,0,1,.42-.73h0a3.79,3.79,0,0,1,1.71-.42,3.72,3.72,0,0,1,1.1.17h0a1.46,1.46,0,0,1,1.08,1v0l0,.07a25.54,25.54,0,0,1,2.37,7.63,13,13,0,0,1-.28,3v0c-.31,2.08-.67,4.21-1,6.27-.13.81-.27,1.63-.4,2.45l0,.11,0,.1v0l.1.29H73.64a4.15,4.15,0,0,1,1.52.29,2.14,2.14,0,0,1,1.12,2.45v0a3.53,3.53,0,0,1-2.58,3Z" transform="translate(-1.19 -1)"/></svg>