<?xml version="1.0" encoding="utf-8"?>
<!-- Generator: Adobe Illustrator 25.1.0, SVG Export Plug-In . SVG Version: 6.00 Build 0)  -->
<svg version="1.1" id="Capa_1" xmlns="http://www.w3.org/2000/svg" xmlns:xlink="http://www.w3.org/1999/xlink" x="0px" y="0px"
	 viewBox="0 0 100 100" style="enable-background:new 0 0 100 100;" xml:space="preserve">
<style type="text/css">
	.st0{fill:#FFFFFF;}
	.st1{fill:#F8C5DD;}
</style>
<path id="Icon" class="st0" d="M79.79,40.84c-0.02-0.27-0.06-0.53-0.14-0.79c-0.29-1.35-1.1-2.53-2.26-3.29l0,0l0,0
	c-0.92-0.54-1.97-0.82-3.04-0.82h-0.29H61.69c0-0.06,0.02-0.11,0.02-0.14c0.09-0.57,0.19-1.14,0.27-1.7
	c0.17-1.1,0.35-2.23,0.56-3.33c0.5-2.26,0.41-4.62-0.27-6.83c-0.61-1.86-1.31-3.76-2.15-5.86c-0.25-0.71-0.67-1.35-1.22-1.86H58.9
	h-0.02c-2.23-1.68-5.24-1.85-7.65-0.44c-1.33,0.74-2.12,2.19-2.01,3.71c0.03,1,0.06,2.02,0.07,3.01c0.02,1.08,0.04,2.19,0.08,3.28
	c0.03,0.63-0.12,1.26-0.41,1.81l0,0c-1.87,3.75-4.02,7.36-6.42,10.8c-0.53,0.7-1.1,1.36-1.72,1.97c-0.05,0.02-0.1,0.03-0.16,0.03
	c-0.04,0-0.07,0-0.11,0c-0.43-0.11-0.86-0.2-1.3-0.25H25.98c-0.07,0-0.13,0-0.2,0c-1.77,0.14-3.1,1.68-2.98,3.45v25.19
	c0,0.07,0,0.14,0,0.21c0.12,1.61,1.45,2.86,3.07,2.89c0.08,0,0.16,0,0.23,0h11.01c0.09,0,0.19,0,0.28,0h0.29
	c1.42-0.12,2.55-1.24,2.68-2.66c0.03-0.25,0.07-0.52,0.08-0.81c0.19,0.03,0.37,0.11,0.52,0.23l0,0l0,0c1.23,0.88,2.7,1.37,4.22,1.41
	h22.48c1.1-0.02,2.19-0.14,3.27-0.36c1.28-0.23,2.45-0.87,3.33-1.82c1.76-1.88,2.39-4.55,1.66-7.02l0,0
	c-0.09-0.35-0.01-0.72,0.21-0.99v-0.02v-0.02c1.37-1.85,1.69-4.27,0.85-6.41l0,0c-0.05-0.1-0.02-0.22,0.05-0.29l0.02-0.03l0.02-0.03
	c1.56-1.9,1.98-4.5,1.09-6.8c-0.01-0.1,0.02-0.21,0.07-0.29v-0.02v-0.02c0.16-0.31,0.34-0.63,0.5-0.91
	c0.21-0.38,0.43-0.76,0.63-1.16l0,0v-0.02c0.14-0.39,0.24-0.8,0.29-1.22c0.03-0.19,0.09-0.77,0.09-0.77v-0.36
	C79.77,41.49,79.79,41,79.79,40.84z M26.18,43.63c0-0.02,0-0.02,0-0.02h0.06h10.16v24.54c0,0.08,0,0.17,0,0.24H26.3h-0.05h-0.03
	c-0.01,0-0.03-0.02-0.03-0.03c0-0.01,0-0.03,0-0.04v-0.06V43.66V43.63z M73.71,45.28c-0.23,0.03-0.44,0.15-0.57,0.34
	c-0.14,0.19-0.21,0.43-0.18,0.66v0.04v0.04c0.09,0.28,0.3,0.5,0.57,0.61c0.71,0.21,1.28,0.74,1.53,1.44
	c0.22,0.86,0.04,1.77-0.49,2.48c-0.47,0.77-1.23,1.33-2.12,1.55h-0.06l-0.06,0.04c-0.27,0.17-0.51,0.4-0.68,0.68l-0.27,0.41
	l0.45,0.21c0.46,0.21,0.9,0.46,1.32,0.74c0.72,0.6,0.98,1.59,0.65,2.47v0.02v0.02c-0.35,1.26-1.34,2.24-2.6,2.57l-0.07,0.02
	l-0.06,0.03c-0.23,0.15-0.42,0.36-0.55,0.6l-0.19,0.36l0.34,0.21c0.49,0.29,0.94,0.64,1.34,1.03c0.62,0.95,0.54,2.18-0.19,3.04
	c-0.6,0.86-1.54,1.42-2.58,1.53c-0.42,0.05-0.83,0.08-1.25,0.08H45.6c-1.02,0-2.01-0.31-2.85-0.89c-0.36-0.3-0.76-0.54-1.18-0.73
	h-0.02h-0.02c-0.6-0.19-1.22-0.32-1.85-0.39h-0.1V45.59c0.02-0.11,0.08-0.21,0.17-0.27c0.88-0.63,1.82-1.25,2.62-1.79l0,0l0,0
	c1.42-1.06,2.59-2.4,3.45-3.95c1.75-2.82,3.48-5.73,5.16-8.55l0.49-0.81c0.37-0.63,0.69-1.3,0.94-1.99c0.2-0.57,0.3-1.17,0.29-1.77
	c0-2.31-0.04-4.66-0.13-6.97v-0.03c-0.03-0.31,0.14-0.6,0.43-0.73l0,0l0,0c0.53-0.27,1.12-0.42,1.71-0.42
	c0.37,0,0.74,0.06,1.09,0.17h0.03c0.51,0.12,0.92,0.49,1.08,0.99v0.02v0.02l0.03,0.08c1.18,2.4,1.98,4.98,2.36,7.63
	c0.03,1-0.06,2.01-0.27,2.99v0.03c-0.31,2.08-0.68,4.21-1.02,6.27c-0.13,0.81-0.27,1.63-0.4,2.45l-0.02,0.11l0.03,0.1v0.02
	l0.09,0.29h15.93c0.52,0,1.04,0.1,1.52,0.29c0.9,0.45,1.37,1.47,1.12,2.44v0.06C76.12,43.7,75.1,44.9,73.71,45.28L73.71,45.28z"/>
<path id="Trazado_253" class="st1" d="M88.24,20.47c-4.65-5.07-11.23-7.93-18.1-7.88c-5.16-0.02-10.17,1.71-14.22,4.91
	c-2.19,1.72-4.13,3.74-5.75,6c-1.62-2.27-3.55-4.29-5.75-6c-4.05-3.2-9.06-4.93-14.22-4.91c-6.88-0.05-13.46,2.81-18.11,7.88
	c-4.74,5.31-7.3,12.21-7.18,19.32c0.21,8.2,3.4,16.04,8.98,22.05c6.91,7.62,14.43,14.68,22.47,21.09c3.11,2.66,6.64,5.66,10.31,8.87
	c2,1.75,4.99,1.75,7,0c3.65-3.21,7.2-6.21,10.31-8.87c8.04-6.41,15.56-13.47,22.47-21.09c5.58-6.01,8.77-13.85,8.98-22.05
	C95.53,32.67,92.97,25.78,88.24,20.47z"/>
</svg>
