<?xml version="1.0" encoding="utf-8"?>
<!-- Generator: Adobe Illustrator 25.1.0, SVG Export Plug-In . SVG Version: 6.00 Build 0)  -->
<svg version="1.1" id="Capa_1" xmlns="http://www.w3.org/2000/svg" xmlns:xlink="http://www.w3.org/1999/xlink" x="0px" y="0px"
	 viewBox="0 0 100 100" style="enable-background:new 0 0 100 100;" xml:space="preserve">
<style type="text/css">
	.st0{fill:#A6CBF7;}
	.st1{fill:#1E252C;}
	.st2{fill:#FFFFFF;}
</style>
<circle id="Elipse_55" class="st0" cx="49.89" cy="49.7" r="48.7"/>
<path class="st1" d="M64.58,76.14c-0.79,0-1.45-0.62-1.5-1.42c-0.36-6.81-6.19-12.08-13.01-11.76c-0.05,0-0.1,0-0.14,0
	c-6.8-0.32-12.66,4.94-13.02,11.76c-0.04,0.83-0.76,1.45-1.58,1.42c-0.83-0.04-1.46-0.75-1.42-1.58c0.45-8.44,7.65-14.95,16.09-14.6
	c8.43-0.34,15.63,6.17,16.07,14.6c0.04,0.83-0.59,1.53-1.42,1.58C64.64,76.14,64.61,76.14,64.58,76.14z"/>
<g id="Grupo_269_1_" transform="translate(1.915 1.019)">
	<path id="Trazado_276_1_" class="st2" d="M27.52,60.46c0.51,0.05,1.03,0.05,1.54,0c3.98-0.52,6.78-4.17,6.25-8.15
		c-0.12-0.9-0.41-1.78-0.85-2.57l-5.39-10c-0.23-0.43-0.78-0.6-1.21-0.36c-0.15,0.08-0.28,0.21-0.36,0.36l-5.41,10
		c-1.94,3.51-0.68,7.93,2.83,9.87C25.73,60.05,26.61,60.34,27.52,60.46z"/>
</g>
<g>
	<circle class="st1" cx="30.2" cy="34.06" r="3.69"/>
	<path class="st1" d="M70.78,30.38c-2.04,0-3.69,1.65-3.69,3.69s1.65,3.69,3.69,3.69s3.69-1.65,3.69-3.69S72.82,30.38,70.78,30.38z"
		/>
</g>
</svg>
